<svg viewBox="0 0 140 140" style="width:70px; height:70px;" xmlns="http://www.w3.org/2000/svg">
        <path
          d="M70 70 m -65 0 a 65 65 0 0 1 130 0 a 65 65 0 0 1 -130 0"
          fill="none"
          stroke="#0200FF"
          strokeWidth="10"
          strokeDasharray="204.2"
          strokeDashoffset="204.2"
        />
        <path
          d="M70 70 m -65 0 a 65 65 0 0 1 130 0 a 65 65 0 0 1 -130 0"
          fill="none"
          stroke="#7A00FF"
          strokeWidth="10"
          strokeDasharray="204.2"
          strokeDashoffset="0"
        />
        <g transform="translate(70,70)">
          <path d="M0 0 L0 -60 A60 60 0 0 1 60 0 Z" fill="#4B00FF" />
          <path d="M0 0 L60 0 A60 60 0 0 1 0 60 Z" fill="#2500A3" />
          <path d="M0 0 L0 60 A60 60 0 0 1 -60 0 Z" fill="#5500FF" />
          <path d="M0 0 L-60 0 A60 60 0 0 1 0 -60 Z" fill="#9F00FF" />
        </g>
      </svg>