<svg viewBox="0 0 76 76" fill="none" xmlns="http://www.w3.org/2000/svg">
  <g clip-path="url(#a)">
    <path d="M21.55 32.24s-19.05 4.99-19.05 6L38 71.74l10.5-21.5 21.86-21.88-40.57-4.44-8.24 8.32z" fill="#5E8CFF"></path>
    <path d="M47.2 6.2c-.86.18-1.08.52-.35 3.91.17.85.78 3.67 1.35 3.55.28-.06.2-1.82.12-3.57-.08-1.76-.28-4.08-1.13-3.9zm12.47-5.07c-1.15-.18-1.6.22-2.44 5.76-.22 1.38-.92 6-.16 6.11.38.06 1.19-2.65 1.99-5.36.8-2.7 1.75-6.34.6-6.51zM72.3 12.4c-.8-.91-1.3-1-4.27 1.57-.75.64-3.22 2.79-2.7 3.4.27.3 2.02-.68 3.76-1.67 1.75-.98 4-2.39 3.2-3.3z" fill="#0F0F0F"></path>
    <path d="M64.95 41.86a14.52 14.52 0 0 0-2-5.69 14.77 14.77 0 0 0-3.9-4.21 14.95 14.95 0 0 0-10.94-2.73 14.77 14.77 0 0 0-5.4 1.9 14.52 14.52 0 0 0-4.45 4.07 4.2 4.2 0 0 0-.3 4.5 5.64 5.64 0 0 0 3.64 2.78l8.5 2.12 8.49 2.11c1.6.4 3.27.11 4.5-.74a4.2 4.2 0 0 0 1.86-4.1z" stroke-width="2" stroke="#0F0F0F" fill="#0F0F0F"></path>
    <path d="M63.82 28.72a9.07 9.07 0 0 1-11.05 6.51 9.07 9.07 0 0 1-6.7-10.94 9.07 9.07 0 0 1 11.05-6.5 9.07 9.07 0 0 1 6.7 10.93z" stroke-width="2" stroke="#0F0F0F" fill="#0F0F0F"></path>
    <path d="M62.95 39.86a14.52 14.52 0 0 0-2-5.69 14.77 14.77 0 0 0-3.9-4.21 14.95 14.95 0 0 0-10.94-2.73 14.77 14.77 0 0 0-5.4 1.9 14.52 14.52 0 0 0-4.45 4.07 4.2 4.2 0 0 0-.3 4.5 5.64 5.64 0 0 0 3.64 2.78l8.5 2.12 8.49 2.11c1.6.4 3.27.11 4.5-.74a4.2 4.2 0 0 0 1.86-4.1z" stroke-width="2" stroke="#0F0F0F" fill="#fff"></path>
    <path d="M61.82 26.72a9.07 9.07 0 0 1-11.05 6.51 9.07 9.07 0 0 1-6.7-10.94 9.07 9.07 0 0 1 11.05-6.5 9.07 9.07 0 0 1 6.7 10.93z" stroke-width="2" stroke="#0F0F0F" fill="#fff"></path>
    <mask fill="#fff" id="b">
      <path d="M57.99 26.14a5.1 5.1 0 0 1-.87 1.83 5.17 5.17 0 0 1-1.51 1.35 5.26 5.26 0 0 1-1.93.68 5.33 5.33 0 0 1-3.9-.98 5.26 5.26 0 0 1-1.38-1.5 5.17 5.17 0 0 1-.7-1.9 5.1 5.1 0 0 1 .09-2.02l5.1 1.27 5.1 1.28z"></path>
    </mask>
    <path mask="url(#b)" d="M57.99 26.14a5.1 5.1 0 0 1-.87 1.83 5.17 5.17 0 0 1-1.51 1.35 5.26 5.26 0 0 1-1.93.68 5.33 5.33 0 0 1-3.9-.98 5.26 5.26 0 0 1-1.38-1.5 5.17 5.17 0 0 1-.7-1.9 5.1 5.1 0 0 1 .09-2.02l5.1 1.27 5.1 1.28z" stroke-width="10" stroke="#0F0F0F" fill="#0F0F0F"></path>
    <mask fill="#fff" id="c">
      <path clip-rule="evenodd" d="M35.87 59.05a9 9 0 0 1-7.14 5.32L15.56 66a9 9 0 0 1-10.04-7.83l-.59-4.79a9 9 0 0 1 7.83-10.03l13.17-1.63a8.99 8.99 0 0 1 7.87 3l1.66-1.28a3 3 0 0 1 4.8 2L41.7 56.6a3 3 0 0 1-4.14 3.16l-1.7-.71z" fill-rule="evenodd"></path>
    </mask>
    <path clip-rule="evenodd" d="M35.87 59.05a9 9 0 0 1-7.14 5.32L15.56 66a9 9 0 0 1-10.04-7.83l-.59-4.79a9 9 0 0 1 7.83-10.03l13.17-1.63a8.99 8.99 0 0 1 7.87 3l1.66-1.28a3 3 0 0 1 4.8 2L41.7 56.6a3 3 0 0 1-4.14 3.16l-1.7-.71z" fill-rule="evenodd" fill="#fff"></path>
    <path mask="url(#c)" d="m35.87 59.05 1.15-2.77-2.71-1.14-1.19 2.7 2.75 1.2zm-7.14 5.32.36 2.98-.36-2.98zM15.56 66l-.37-2.98.37 2.98zM5.52 58.17l-2.98.36 2.98-.36zm-.6-4.79-2.97.37 2.98-.37zm7.84-10.03.37 2.98-.37-2.98zm13.17-1.63-.37-2.97.37 2.97zm7.86 3-2.25 1.98 1.85 2.1 2.23-1.7-1.83-2.39zm1.67-1.28 1.82 2.38-1.82-2.38zm4.8 2-2.98.38 2.98-.38zM41.7 56.6l-2.97.39 2.97-.39zm-4.13 3.16-1.15 2.77 1.15-2.77zm-4.45-1.92a6 6 0 0 1-4.76 3.55l.73 5.96a12 12 0 0 0 9.53-7.1l-5.5-2.4zm-4.76 3.55-13.17 1.63.73 5.95 13.18-1.62-.74-5.96zm-13.17 1.63a6 6 0 0 1-6.7-5.22l-5.95.74a12 12 0 0 0 13.38 10.44l-.73-5.96zm-6.7-5.22-.58-4.78-5.96.73.6 4.79 5.95-.74zm-.58-4.78a6 6 0 0 1 5.22-6.7l-.74-5.95A12 12 0 0 0 1.95 53.75l5.96-.73zm5.22-6.7L26.3 44.7l-.74-5.95-13.17 1.62.74 5.96zM26.3 44.7a5.99 5.99 0 0 1 5.24 2l4.5-3.97a11.99 11.99 0 0 0-10.48-3.98l.74 5.95zm9.32 2.4 1.66-1.28-3.64-4.76-1.67 1.27 3.65 4.77zm1.66-1.28 5.95-.77a6 6 0 0 0-9.59-4l3.64 4.77zm0 0L38.73 57l5.95-.77-1.45-11.17-5.95.77zM38.73 57l-2.3 5.54a6 6 0 0 0 8.25-6.31l-5.95.77zm0 0-1.7-.71-2.31 5.54 1.7.7L38.73 57z" fill="#0F0F0F"></path>
    <mask fill="#fff" id="d">
      <path clip-rule="evenodd" d="M33.87 58.05a9 9 0 0 1-7.14 5.32L13.56 65a9 9 0 0 1-10.04-7.83l-.59-4.79a9 9 0 0 1 7.83-10.03l13.17-1.63a8.99 8.99 0 0 1 7.86 3l1.67-1.28a3 3 0 0 1 4.8 2L39.7 55.6a3 3 0 0 1-4.12 3.16l-1.71-.71z" fill-rule="evenodd"></path>
    </mask>
    <path clip-rule="evenodd" d="M33.87 58.05a9 9 0 0 1-7.14 5.32L13.56 65a9 9 0 0 1-10.04-7.83l-.59-4.79a9 9 0 0 1 7.83-10.03l13.17-1.63a8.99 8.99 0 0 1 7.86 3l1.67-1.28a3 3 0 0 1 4.8 2L39.7 55.6a3 3 0 0 1-4.12 3.16l-1.71-.71z" fill-rule="evenodd" fill="#fff"></path>
    <path mask="url(#d)" d="m33.87 58.05 1.15-2.77-2.71-1.14-1.19 2.7 2.75 1.2zm-7.14 5.32.36 2.98-.36-2.98zM13.56 65l-.37-2.98.37 2.98zM3.52 57.17l-2.98.36 2.98-.36zm-.59-4.79-2.98.37 2.98-.37zm7.83-10.03.37 2.98-.37-2.98zm13.17-1.63-.37-2.97.37 2.97zm7.86 3-2.25 1.98 1.85 2.1 2.23-1.7-1.83-2.39zm1.67-1.28 1.82 2.38-1.82-2.38zm4.8 2-2.98.38 2.98-.38zM39.7 55.6l-2.97.39 2.97-.39zm-4.13 3.16-1.15 2.77 1.15-2.77zm-4.45-1.92a6 6 0 0 1-4.76 3.55l.73 5.96a12 12 0 0 0 9.53-7.1l-5.5-2.4zm-4.76 3.55-13.17 1.63.73 5.96 13.17-1.63-.73-5.96zm-13.17 1.63a6 6 0 0 1-6.7-5.22l-5.95.74a12 12 0 0 0 13.38 10.44l-.73-5.96zm-6.7-5.22-.58-4.78-5.96.73.6 4.79 5.95-.74zm-.58-4.78a6 6 0 0 1 5.22-6.7l-.74-5.95A12 12 0 0 0-.05 52.75l5.96-.73zm5.22-6.7L24.3 43.7l-.74-5.95-13.17 1.62.74 5.96zM24.3 43.7a5.99 5.99 0 0 1 5.24 2l4.5-3.97a11.99 11.99 0 0 0-10.48-3.98l.74 5.95zm9.32 2.4 1.66-1.28-3.64-4.76-1.67 1.27 3.65 4.77zm1.66-1.28 5.95-.77a6 6 0 0 0-9.59-4l3.64 4.77zm0 0L36.73 56l5.95-.77-1.45-11.17-5.95.77zM36.73 56l-2.3 5.54a6 6 0 0 0 8.25-6.31l-5.95.77zm0 0-1.7-.71-2.31 5.54 1.7.7L36.73 56z" fill="#0F0F0F"></path>
  </g>
  <defs>
    <clipPath id="a">
      <path d="M0 0h76v76H0z" fill="#fff"></path>
    </clipPath>
  </defs>
</svg>
