<svg viewBox="0 0 76 76" fill="none" xmlns="http://www.w3.org/2000/svg">
  <g clip-path="url(#a)">
    <path d="M14.88 20.85c-.64 4.09-1.9 12.51-1.9 13.53l6.54 22.82 29.58 2.1 19.23-28.94-40.57-4.44-12.89-5.07z" fill="#FFC32A"></path>
    <path clip-rule="evenodd" d="M51.95 45.83c8.88 2 17.4-2.25 19.03-9.48s-4.26-14.71-13.14-16.7c-8.89-2-17.4 2.24-19.03 9.47-1.07 4.76 1.11 9.63 5.27 12.97l-.94 7.6 1.49.37c.31.08.66 0 .91-.2l5.36-4.3 1.05.27z" fill-rule="evenodd" fill="#0F0F0F"></path>
    <mask fill="#fff" id="b">
      <path clip-rule="evenodd" d="M49.42 45.77c8.57 2.13 16.97-1.96 18.76-9.15 1.8-7.2-3.7-14.76-12.26-16.9-8.57-2.13-16.97 1.96-18.76 9.15-1.3 5.24 1.25 10.67 6.04 14.06l-.47 4.81c-.08.83.88 1.36 1.59.87l4.44-3.02.66.17z" fill-rule="evenodd"></path>
    </mask>
    <path clip-rule="evenodd" d="M49.42 45.77c8.57 2.13 16.97-1.96 18.76-9.15 1.8-7.2-3.7-14.76-12.26-16.9-8.57-2.13-16.97 1.96-18.76 9.15-1.3 5.24 1.25 10.67 6.04 14.06l-.47 4.81c-.08.83.88 1.36 1.59.87l4.44-3.02.66.17z" fill-rule="evenodd" fill="#fff"></path>
    <path mask="url(#b)" d="m43.2 42.93 2.98.3a3 3 0 0 0-1.25-2.74l-1.73 2.44zm-.47 4.81-2.99-.29 2.99.3zm1.59.87L46 51.1l-1.7-2.48zm4.44-3.02.83-2.89a3 3 0 0 0-2.52.4l1.69 2.49zm16.51-9.7c-1.28 5.13-7.66 8.83-15.12 6.96l-1.46 5.83c9.68 2.41 20.1-2.08 22.4-11.34l-5.82-1.45zM55.2 22.64c7.46 1.86 11.36 8.13 10.08 13.25l5.82 1.45c2.31-9.25-4.77-18.11-14.44-20.53l-1.46 5.83zM40.07 29.6c1.28-5.13 7.66-8.82 15.12-6.96l1.46-5.83c-9.68-2.41-20.1 2.08-22.4 11.34l5.82 1.45zm4.86 10.88c-4.03-2.85-5.8-7.12-4.86-10.88l-5.82-1.45c-1.68 6.7 1.66 13.3 7.21 17.23l3.47-4.9zm.78 7.56.47-4.82-5.97-.58-.47 4.81 5.97.59zm-3.08-1.91a1.96 1.96 0 0 1 2.03-.1 2.06 2.06 0 0 1 1.05 2l-5.97-.58c-.36 3.7 3.74 5.36 6.26 3.64l-3.37-4.96zm4.44-3.02-4.44 3.02L46 51.09l4.45-3.02-3.38-4.96zm3.08-.26a16.68 16.68 0 0 1-.56-.15l-1.66 5.77.76.2 1.46-5.82z" fill="#0F0F0F"></path>
    <mask fill="#fff" id="c">
      <path clip-rule="evenodd" d="M26.18 61.7c-8.83.26-16.16-5.53-16.39-12.94-.22-7.4 6.75-13.62 15.58-13.89 8.82-.26 16.16 5.52 16.38 12.93.17 5.4-3.49 10.16-8.89 12.45l-.56 4.8c-.1.83-1.15 1.14-1.74.51l-3.7-3.9-.68.04z" fill-rule="evenodd"></path>
    </mask>
    <path clip-rule="evenodd" d="M26.18 61.7c-8.83.26-16.16-5.53-16.39-12.94-.22-7.4 6.75-13.62 15.58-13.89 8.82-.26 16.16 5.52 16.38 12.93.17 5.4-3.49 10.16-8.89 12.45l-.56 4.8c-.1.83-1.15 1.14-1.74.51l-3.7-3.9-.68.04z" fill-rule="evenodd" fill="#fff"></path>
    <path mask="url(#c)" d="m32.86 60.25-2.98-.35a3 3 0 0 1 1.8-2.4l1.18 2.75zm-.56 4.8 2.98.36-2.98-.35zm-1.74.51-2.18 2.07 2.18-2.07zm-3.7-3.9-.2-2.99a3 3 0 0 1 2.38.93l-2.18 2.06zM12.8 48.68c.16 5.27 5.61 10.25 13.3 10.02l.18 6C16.3 65 7.08 58.38 6.79 48.84l6-.18zm12.67-10.81c-7.69.23-12.83 5.52-12.67 10.8l-6 .18c-.29-9.53 8.52-16.68 18.49-16.98l.18 6zm13.3 10.02c-.17-5.28-5.62-10.25-13.3-10.02l-.18-6c9.97-.3 19.18 6.3 19.47 15.84l-6 .18zm-7.07 9.6c4.54-1.93 7.18-5.72 7.06-9.6l6-.18c.21 6.9-4.46 12.64-10.72 15.3L31.7 57.5zm-2.37 7.21.56-4.8 5.96.7-.57 4.8-5.96-.7zm3.41-1.2a1.96 1.96 0 0 0-1.96-.53 2.06 2.06 0 0 0-1.45 1.73l5.96.7c-.44 3.7-4.8 4.44-6.9 2.23l4.35-4.13zm-3.7-3.9 3.7 3.9-4.35 4.13-3.7-3.9 4.36-4.13zm-2.94-.9c.2 0 .38-.02.57-.03l.4 5.99-.8.04-.17-6z" fill="#0F0F0F"></path>
    <mask fill="#fff" id="d">
      <path clip-rule="evenodd" d="M24.18 60.7c-8.83.26-16.16-5.53-16.39-12.94-.22-7.4 6.75-13.62 15.58-13.89 8.82-.26 16.16 5.52 16.38 12.93.17 5.4-3.49 10.16-8.89 12.45l-.56 4.8c-.1.83-1.15 1.14-1.74.51l-3.7-3.9-.68.04z" fill-rule="evenodd"></path>
    </mask>
    <path clip-rule="evenodd" d="M24.18 60.7c-8.83.26-16.16-5.53-16.39-12.94-.22-7.4 6.75-13.62 15.58-13.89 8.82-.26 16.16 5.52 16.38 12.93.17 5.4-3.49 10.16-8.89 12.45l-.56 4.8c-.1.83-1.15 1.14-1.74.51l-3.7-3.9-.68.04z" fill-rule="evenodd" fill="#fff"></path>
    <path mask="url(#d)" d="m30.86 59.25-2.98-.35a3 3 0 0 1 1.8-2.4l1.18 2.75zm-.56 4.8 2.98.36-2.98-.35zm-1.74.51-2.18 2.07 2.18-2.07zm-3.7-3.9-.2-2.99a3 3 0 0 1 2.38.93l-2.18 2.06zM10.8 47.68c.16 5.27 5.61 10.25 13.3 10.02l.18 6C14.3 64 5.08 57.38 4.79 47.84l6-.18zm12.67-10.81c-7.69.23-12.83 5.52-12.67 10.8l-6 .18c-.29-9.53 8.52-16.68 18.49-16.98l.18 6zm13.3 10.02c-.17-5.28-5.62-10.25-13.3-10.02l-.18-6c9.97-.3 19.18 6.3 19.47 15.84l-6 .18zm-7.07 9.6c4.54-1.93 7.18-5.72 7.06-9.6l6-.18c.21 6.9-4.46 12.64-10.72 15.3L29.7 56.5zm-2.37 7.21.56-4.8 5.96.7-.57 4.8-5.96-.7zm3.41-1.2a1.96 1.96 0 0 0-1.96-.53 2.06 2.06 0 0 0-1.45 1.73l5.95.7c-.43 3.7-4.79 4.44-6.89 2.23l4.35-4.13zm-3.7-3.9 3.7 3.9-4.35 4.13-3.7-3.9 4.36-4.13zm-2.94-.9c.2 0 .38-.02.57-.03l.4 5.99-.8.04-.17-6z" fill="#0F0F0F"></path>
    <path d="M45.16 8.2c-.84.18-1.07.52-.34 3.91.18.85.79 3.67 1.35 3.55.28-.06.2-1.82.12-3.57-.08-1.76-.28-4.08-1.13-3.9zm12.48-5.07c-1.14-.18-1.6.22-2.44 5.76-.22 1.38-.92 6-.16 6.11.38.06 1.19-2.65 2-5.36.8-2.7 1.74-6.34.6-6.51zM70.28 14.4c-.79-.91-1.3-1-4.27 1.57-.75.64-3.22 2.79-2.69 3.4.26.3 2.01-.68 3.76-1.67 1.74-.98 3.99-2.39 3.2-3.3z" fill="#0F0F0F"></path>
  </g>
  <defs>
    <clipPath id="a">
      <path d="M0 0h76v76H0z" fill="#fff"></path>
    </clipPath>
  </defs>
</svg>
