<svg xmlns="http://www.w3.org/2000/svg" xmlns:xlink="http://www.w3.org/1999/xlink" width="500" zoomAndPan="magnify" viewBox="0 0 375 374.999991" height="500" preserveAspectRatio="xMidYMid meet" version="1.0"><path fill="#fefefd" d="M 239.8125 41.4375 C 240.050781 41.914062 240.289062 42.386719 240.53125 42.875 C 242.503906 43.21875 244.417969 43.480469 246.402344 43.679688 C 247.21875 43.773438 247.21875 43.773438 248.046875 43.867188 C 251.054688 44.195312 253.996094 44.375 257.027344 44.308594 C 257.027344 44.78125 257.027344 45.253906 257.027344 45.742188 C 257.78125 45.785156 258.539062 45.832031 259.316406 45.875 C 263.101562 46.328125 266.460938 47.785156 269.972656 49.214844 C 271.980469 50.058594 271.980469 50.058594 273.714844 50.425781 C 274.960938 50.761719 274.960938 50.761719 276.394531 52.195312 C 277.640625 52.8125 278.898438 53.40625 280.160156 53.988281 C 287.800781 57.75 294.4375 62.871094 300.652344 68.664062 C 302.0625 69.980469 303.511719 71.21875 304.996094 72.453125 C 306.976562 74.121094 308.523438 75.957031 310.105469 78.007812 C 310.582031 78.246094 311.054688 78.480469 311.542969 78.726562 C 311.304688 79.433594 311.070312 80.144531 310.824219 80.875 C 309.550781 81.300781 309.550781 81.300781 308 81.546875 C 305.625 81.984375 305.625 81.984375 304.054688 83.746094 C 303.921875 84.21875 303.789062 84.691406 303.652344 85.179688 C 303.414062 85.652344 303.179688 86.125 302.933594 86.613281 C 302.769531 88.195312 302.640625 89.777344 302.53125 91.363281 C 302.472656 92.214844 302.410156 93.066406 302.347656 93.945312 C 302.304688 94.601562 302.261719 95.257812 302.21875 95.933594 C 302.691406 96.171875 303.164062 96.40625 303.652344 96.652344 C 303.886719 96.886719 304.125 97.125 304.367188 97.367188 C 304.84375 96.894531 305.316406 96.421875 305.804688 95.933594 C 306.515625 95.933594 307.222656 95.933594 307.957031 95.933594 C 307.921875 95.535156 307.890625 95.136719 307.855469 94.722656 C 307.65625 90.542969 308.148438 87.085938 310.824219 83.746094 C 314.511719 80.855469 318.722656 79.226562 323.019531 77.425781 C 328.679688 75.011719 334.238281 72.503906 339.699219 69.671875 C 343.765625 67.632812 346.46875 66.957031 350.992188 67.253906 C 352.425781 68.6875 352.425781 68.6875 352.582031 71.265625 C 352.503906 74.421875 351.984375 77.429688 351.351562 80.519531 C 351.25 81.039062 351.144531 81.5625 351.039062 82.097656 C 350.789062 83.363281 350.53125 84.628906 350.273438 85.894531 C 350.9375 86.117188 351.597656 86.335938 352.28125 86.5625 C 353.828125 87.078125 355.371094 87.605469 356.910156 88.136719 C 358.765625 88.835938 358.765625 88.835938 360.316406 88.765625 C 360.554688 89.238281 360.789062 89.710938 361.035156 90.199219 C 361.507812 90.433594 361.980469 90.671875 362.46875 90.914062 C 363.558594 92.519531 363.894531 93.589844 363.992188 95.53125 C 362.039062 99.984375 355.390625 102.03125 351.15625 103.945312 C 350.292969 104.339844 350.292969 104.339844 349.414062 104.746094 C 348.207031 105.296875 347 105.84375 345.792969 106.394531 C 343.945312 107.230469 342.097656 108.078125 340.25 108.921875 C 339.074219 109.460938 337.898438 109.996094 336.722656 110.53125 C 336.171875 110.785156 335.621094 111.035156 335.050781 111.296875 C 329.839844 113.660156 325.820312 114.886719 320.328125 112.875 C 319.558594 112.488281 318.789062 112.105469 317.996094 111.710938 C 317.132812 111.289062 317.132812 111.289062 316.25 110.859375 C 315.878906 110.664062 315.507812 110.472656 315.128906 110.273438 C 314.65625 111.457031 314.179688 112.640625 313.695312 113.859375 C 317.453125 116.480469 320.664062 117.996094 325.171875 118.878906 C 325.40625 118.40625 325.644531 117.933594 325.886719 117.445312 C 327.070312 117.445312 328.253906 117.445312 329.472656 117.445312 C 336.019531 138.480469 333.976562 162.085938 323.800781 181.609375 C 315.476562 196.953125 303.980469 208.90625 289.164062 217.992188 C 287.148438 219.167969 287.148438 219.167969 285.71875 220.699219 C 285.246094 221.171875 284.773438 221.644531 284.285156 222.132812 C 283.574219 222.132812 282.863281 222.132812 282.132812 222.132812 C 281.199219 222.429688 280.28125 222.769531 279.371094 223.128906 C 278.824219 223.34375 278.28125 223.554688 277.71875 223.773438 C 277.132812 224 276.550781 224.230469 275.945312 224.464844 C 265.242188 228.5 254.773438 230.445312 243.398438 231.457031 C 242.289062 229.234375 243.148438 227.554688 243.714844 225.179688 C 244.488281 221.921875 244.964844 219.03125 244.835938 215.679688 C 245.308594 215.679688 245.78125 215.679688 246.269531 215.679688 C 246.390625 214.550781 246.390625 214.550781 246.511719 213.398438 C 246.945312 209.929688 247.640625 206.527344 248.324219 203.101562 C 250.1875 193.695312 251.597656 185.066406 249.855469 175.527344 C 249.390625 175.652344 248.921875 175.78125 248.441406 175.914062 C 239.835938 177.222656 228.578125 174.710938 221.378906 169.941406 C 218.722656 167.390625 217.691406 165.140625 217.3125 161.480469 C 217.296875 160.585938 217.28125 159.6875 217.265625 158.765625 C 217.039062 154.46875 216.816406 150.945312 213.992188 147.5625 C 207.5625 142.132812 197.140625 143.097656 189.148438 143.347656 C 186.878906 143.265625 185.738281 143.039062 183.867188 141.824219 C 183.628906 142.773438 183.390625 143.71875 183.148438 144.691406 C 183.148438 143.984375 183.148438 143.273438 183.148438 142.542969 C 180.140625 142.628906 177.128906 142.71875 174.121094 142.808594 C 173.101562 142.839844 172.082031 142.871094 171.0625 142.898438 C 164.792969 143.078125 158.554688 143.371094 152.304688 143.976562 C 152.3125 143.476562 152.320312 142.976562 152.328125 142.464844 C 152.363281 139.570312 152.3125 136.855469 151.902344 133.980469 C 151.589844 131.785156 151.589844 131.785156 152.304688 129.636719 C 152.519531 125.507812 152.445312 121.324219 150.871094 117.445312 C 149.105469 116.125 149.105469 116.125 147.285156 115.292969 C 146.0625 112.59375 146.898438 110.066406 147.507812 107.273438 C 147.699219 106.375 147.886719 105.476562 148.082031 104.554688 C 148.292969 103.839844 148.503906 103.125 148.71875 102.386719 C 149.429688 102.03125 149.429688 102.03125 150.152344 101.671875 C 150.25 101.183594 150.347656 100.691406 150.449219 100.1875 C 153.371094 85.660156 165.636719 72.082031 176.691406 62.949219 C 176.929688 62.476562 177.167969 62.003906 177.410156 61.515625 C 178.566406 60.828125 179.722656 60.148438 180.902344 59.503906 C 182.535156 58.589844 184.113281 57.613281 185.703125 56.632812 C 192.722656 52.441406 199.621094 49.074219 207.488281 46.886719 C 208.710938 46.542969 209.917969 46.144531 211.121094 45.742188 C 211.359375 45.269531 211.597656 44.796875 211.839844 44.308594 C 213.722656 44.035156 213.722656 44.035156 216.144531 43.902344 C 218.851562 43.738281 221.527344 43.566406 224.214844 43.1875 C 229.371094 42.566406 234.628906 42.820312 239.8125 42.875 C 239.8125 42.398438 239.8125 41.925781 239.8125 41.4375 Z M 306.519531 96.652344 C 306.046875 97.125 305.574219 97.597656 305.085938 98.085938 C 306.269531 97.847656 307.453125 97.613281 308.671875 97.367188 C 307.960938 97.132812 307.253906 96.894531 306.519531 96.652344 Z M 314.410156 108.125 C 314.175781 108.597656 313.9375 109.070312 313.695312 109.558594 C 314.167969 109.558594 314.640625 109.558594 315.128906 109.558594 C 314.890625 109.085938 314.65625 108.613281 314.410156 108.125 Z M 314.410156 108.125 " fill-opacity="1" fill-rule="nonzero"/><path fill="#fecb1b" d="M 256.3125 97.367188 C 256.945312 97.601562 257.574219 97.839844 258.226562 98.078125 C 264.253906 100.707031 270.746094 106.101562 274.242188 111.710938 C 274.242188 112.417969 274.242188 113.128906 274.242188 113.859375 C 271.148438 115.316406 268.046875 116.757812 264.941406 118.1875 C 263.882812 118.675781 262.832031 119.167969 261.777344 119.664062 C 260.261719 120.375 258.742188 121.074219 257.222656 121.773438 C 256.753906 121.996094 256.285156 122.21875 255.804688 122.449219 C 253.050781 123.691406 251.3125 124.175781 248.421875 123.183594 C 247.710938 122.828125 247.710938 122.828125 246.988281 122.464844 C 241.648438 121.972656 237.671875 122.011719 233.359375 125.332031 C 230.261719 128.671875 229.515625 131.347656 229.566406 135.789062 C 229.980469 139.273438 231.519531 142.136719 233.984375 144.605469 C 237.589844 146.511719 240.757812 147.265625 244.835938 146.84375 C 249.015625 145.464844 251.351562 143.625 253.441406 139.675781 C 253.691406 138.867188 253.941406 138.058594 254.199219 137.222656 C 255.699219 133.730469 258.542969 132.808594 261.890625 131.410156 C 262.519531 131.132812 263.152344 130.851562 263.804688 130.5625 C 265.828125 129.667969 267.859375 128.800781 269.894531 127.933594 C 271.214844 127.355469 272.535156 126.777344 273.855469 126.195312 C 276.492188 125.039062 279.128906 123.890625 281.773438 122.746094 C 285.679688 121.054688 289.570312 119.328125 293.457031 117.582031 C 294.023438 117.328125 294.585938 117.078125 295.171875 116.816406 C 299.636719 114.804688 304.046875 112.6875 308.394531 110.429688 C 311.871094 108.71875 311.871094 108.71875 314.03125 109.410156 C 314.574219 109.839844 314.574219 109.839844 315.128906 110.273438 C 314.65625 111.457031 314.179688 112.640625 313.695312 113.859375 C 317.453125 116.480469 320.664062 117.996094 325.171875 118.878906 C 325.40625 118.40625 325.644531 117.933594 325.886719 117.445312 C 327.070312 117.445312 328.253906 117.445312 329.472656 117.445312 C 336.019531 138.480469 333.976562 162.085938 323.800781 181.609375 C 315.476562 196.953125 303.980469 208.90625 289.164062 217.992188 C 287.148438 219.167969 287.148438 219.167969 285.71875 220.699219 C 285.246094 221.171875 284.773438 221.644531 284.285156 222.132812 C 283.574219 222.132812 282.863281 222.132812 282.132812 222.132812 C 281.199219 222.429688 280.28125 222.769531 279.371094 223.128906 C 278.824219 223.34375 278.28125 223.554688 277.71875 223.773438 C 276.839844 224.113281 276.839844 224.113281 275.945312 224.464844 C 265.242188 228.5 254.773438 230.445312 243.398438 231.457031 C 242.289062 229.234375 243.152344 227.554688 243.714844 225.179688 C 244.488281 221.921875 244.964844 219.03125 244.835938 215.679688 C 245.308594 215.679688 245.78125 215.679688 246.269531 215.679688 C 246.351562 214.925781 246.429688 214.171875 246.511719 213.398438 C 246.945312 209.929688 247.640625 206.527344 248.324219 203.101562 C 250.1875 193.695312 251.597656 185.066406 249.855469 175.527344 C 249.15625 175.71875 249.15625 175.71875 248.441406 175.914062 C 239.835938 177.222656 228.578125 174.710938 221.378906 169.941406 C 218.722656 167.390625 217.691406 165.140625 217.3125 161.480469 C 217.296875 160.585938 217.28125 159.6875 217.265625 158.765625 C 217.042969 154.496094 216.839844 150.910156 213.992188 147.5625 C 210.414062 144.898438 206.871094 144.007812 202.515625 143.257812 C 200.070312 133.246094 201.621094 122.660156 206.59375 113.726562 C 212.429688 104.742188 220.160156 98.359375 230.488281 95.21875 C 239.410156 93.378906 247.828125 94.214844 256.3125 97.367188 Z M 256.3125 97.367188 " fill-opacity="1" fill-rule="nonzero"/><path fill="#3f96fe" d="M 85.285156 174.675781 C 89.019531 174.703125 92.683594 175.226562 96.378906 175.730469 C 100.222656 176.234375 103.964844 176.410156 107.835938 176.242188 C 107.835938 176.480469 107.835938 176.714844 107.835938 176.960938 C 109.609375 177.316406 109.609375 177.316406 111.421875 177.675781 C 111.65625 177.203125 111.894531 176.730469 112.136719 176.242188 C 112.492188 176.953125 112.492188 176.953125 112.855469 177.675781 C 114.75 177.675781 116.640625 177.675781 118.59375 177.675781 C 118.59375 178.148438 118.59375 178.625 118.59375 179.109375 C 119.1875 179.148438 119.785156 179.1875 120.398438 179.230469 C 127.363281 179.703125 134.296875 180.371094 141.242188 181.101562 C 142.644531 181.246094 144.046875 181.390625 145.449219 181.535156 C 146.269531 181.621094 147.085938 181.707031 147.929688 181.792969 C 150.121094 182.011719 150.121094 182.011719 152.195312 181.960938 C 153.738281 181.980469 153.738281 181.980469 154.457031 182.695312 C 156.402344 182.988281 158.332031 183.238281 160.285156 183.457031 C 160.820312 183.523438 161.359375 183.589844 161.910156 183.65625 C 164.34375 183.9375 166.65625 184.128906 169.109375 184.082031 C 171.820312 184.132812 174.191406 184.605469 176.832031 185.171875 C 180.625 185.910156 184.464844 186.296875 188.304688 186.730469 C 189.527344 186.875 189.527344 186.875 190.773438 187.019531 C 193.914062 187.378906 196.964844 187.722656 200.128906 187.6875 C 202.144531 187.710938 203.660156 187.917969 205.601562 188.347656 C 209 189.082031 212.378906 189.476562 215.835938 189.816406 C 216.386719 189.871094 216.941406 189.925781 217.511719 189.984375 C 219.820312 190.214844 222.128906 190.441406 224.4375 190.65625 C 226.144531 190.8125 227.847656 190.984375 229.554688 191.160156 C 230.066406 191.203125 230.578125 191.246094 231.105469 191.292969 C 234.84375 191.691406 238.125 192.738281 241.25 194.886719 C 243.964844 199.589844 241.902344 204.648438 240.664062 209.628906 C 240.433594 210.59375 240.207031 211.558594 239.976562 212.523438 C 239.480469 214.601562 238.980469 216.683594 238.472656 218.761719 C 237.609375 222.335938 236.785156 225.921875 235.960938 229.503906 C 235.535156 231.355469 235.105469 233.207031 234.675781 235.058594 C 234.398438 236.265625 234.117188 237.472656 233.84375 238.679688 C 233.449219 240.382812 233.050781 242.082031 232.652344 243.78125 C 232.539062 244.285156 232.421875 244.789062 232.304688 245.308594 C 231.148438 250.171875 229.730469 253.746094 225.46875 256.550781 C 222.890625 257.445312 220.378906 257.351562 217.675781 257.335938 C 217.199219 257.332031 216.722656 257.332031 216.234375 257.328125 C 211.382812 257.289062 206.542969 257.109375 201.695312 256.898438 C 200.734375 256.859375 199.769531 256.816406 198.804688 256.777344 C 196.214844 256.667969 193.628906 256.558594 191.039062 256.441406 C 189.414062 256.371094 187.789062 256.300781 186.160156 256.230469 C 169.269531 255.496094 152.378906 254.695312 135.496094 253.824219 C 133.109375 253.699219 130.726562 253.578125 128.339844 253.460938 C 125.527344 253.320312 122.710938 253.175781 119.898438 253.023438 C 118.867188 252.96875 117.832031 252.917969 116.800781 252.867188 C 115.382812 252.796875 113.964844 252.71875 112.546875 252.640625 C 111.753906 252.601562 110.960938 252.558594 110.140625 252.515625 C 105.824219 252.015625 102.308594 251.109375 99.226562 247.945312 C 98.289062 245.957031 98.289062 245.957031 97.558594 243.453125 C 97.417969 242.972656 97.277344 242.488281 97.128906 241.992188 C 94.613281 233.152344 92.550781 224.179688 90.40625 215.246094 C 89.910156 213.179688 89.40625 211.113281 88.902344 209.046875 C 88.417969 207.050781 87.9375 205.054688 87.453125 203.054688 C 87.226562 202.105469 86.996094 201.152344 86.765625 200.203125 C 86.445312 198.882812 86.128906 197.5625 85.8125 196.242188 C 85.632812 195.492188 85.449219 194.746094 85.265625 193.972656 C 84.882812 192.019531 84.882812 192.019531 84.882812 189.148438 C 84.40625 188.914062 83.933594 188.675781 83.445312 188.433594 C 83.132812 186.507812 82.910156 184.636719 82.730469 182.695312 C 82.652344 182.054688 82.578125 181.410156 82.503906 180.746094 C 82.074219 176.976562 82.074219 176.976562 82.011719 175.527344 C 82.730469 174.808594 82.730469 174.808594 85.285156 174.675781 Z M 85.285156 174.675781 " fill-opacity="1" fill-rule="nonzero"/><path fill="#fecb1c" d="M 239.8125 41.4375 C 240.050781 41.914062 240.289062 42.386719 240.53125 42.875 C 242.503906 43.21875 244.417969 43.480469 246.402344 43.679688 C 247.21875 43.773438 247.21875 43.773438 248.046875 43.867188 C 251.054688 44.195312 253.996094 44.375 257.027344 44.308594 C 257.027344 44.78125 257.027344 45.253906 257.027344 45.742188 C 257.78125 45.785156 258.539062 45.832031 259.316406 45.875 C 263.101562 46.328125 266.460938 47.785156 269.972656 49.214844 C 271.980469 50.058594 271.980469 50.058594 273.714844 50.425781 C 274.960938 50.761719 274.960938 50.761719 276.394531 52.195312 C 277.640625 52.8125 278.898438 53.40625 280.160156 53.988281 C 287.800781 57.75 294.4375 62.871094 300.652344 68.664062 C 302.0625 69.980469 303.511719 71.21875 304.996094 72.453125 C 306.976562 74.121094 308.523438 75.957031 310.105469 78.007812 C 310.582031 78.246094 311.054688 78.480469 311.542969 78.726562 C 311.304688 79.433594 311.070312 80.144531 310.824219 80.875 C 309.550781 81.300781 309.550781 81.300781 308 81.546875 C 305.625 81.984375 305.625 81.984375 304.054688 83.746094 C 303.921875 84.21875 303.789062 84.691406 303.652344 85.179688 C 303.414062 85.652344 303.179688 86.125 302.933594 86.613281 C 302.769531 88.195312 302.640625 89.777344 302.53125 91.363281 C 302.472656 92.214844 302.410156 93.066406 302.347656 93.945312 C 302.304688 94.601562 302.261719 95.257812 302.21875 95.933594 C 302.691406 96.171875 303.164062 96.40625 303.652344 96.652344 C 304.367188 97.367188 305.085938 98.085938 305.804688 98.800781 C 303.671875 99.75 301.542969 100.695312 299.347656 101.671875 C 299.085938 101.210938 298.824219 100.75 298.550781 100.273438 C 288.539062 83.5625 272.6875 72.53125 254.003906 67.546875 C 248.617188 66.304688 243.214844 66.21875 237.707031 66.222656 C 237.214844 66.222656 236.726562 66.222656 236.21875 66.222656 C 217.734375 66.285156 202.535156 72.789062 189.179688 85.515625 C 177.035156 98.296875 172.648438 114.140625 172.972656 131.339844 C 172.984375 132.363281 172.992188 133.386719 173 134.414062 C 173.023438 136.882812 173.0625 139.355469 173.105469 141.824219 C 173.816406 142.0625 174.527344 142.296875 175.257812 142.542969 C 174.324219 142.585938 173.386719 142.628906 172.421875 142.671875 C 165.703125 142.992188 159.003906 143.335938 152.304688 143.976562 C 152.3125 143.515625 152.320312 143.058594 152.332031 142.585938 C 152.359375 139.648438 152.316406 136.894531 151.902344 133.980469 C 151.589844 131.785156 151.589844 131.785156 152.304688 129.636719 C 152.519531 125.507812 152.445312 121.324219 150.871094 117.445312 C 149.105469 116.125 149.105469 116.125 147.285156 115.292969 C 146.0625 112.59375 146.898438 110.066406 147.507812 107.273438 C 147.699219 106.375 147.886719 105.476562 148.082031 104.554688 C 148.292969 103.839844 148.503906 103.125 148.71875 102.386719 C 149.429688 102.03125 149.429688 102.03125 150.152344 101.671875 C 150.25 101.183594 150.347656 100.691406 150.449219 100.1875 C 153.371094 85.660156 165.636719 72.082031 176.691406 62.949219 C 176.929688 62.476562 177.167969 62.003906 177.410156 61.515625 C 178.566406 60.828125 179.722656 60.148438 180.902344 59.503906 C 182.535156 58.589844 184.113281 57.613281 185.703125 56.632812 C 192.722656 52.441406 199.621094 49.074219 207.488281 46.886719 C 208.710938 46.542969 209.917969 46.144531 211.121094 45.742188 C 211.359375 45.269531 211.597656 44.796875 211.839844 44.308594 C 213.722656 44.035156 213.722656 44.035156 216.144531 43.902344 C 218.851562 43.738281 221.527344 43.566406 224.214844 43.1875 C 229.371094 42.566406 234.628906 42.820312 239.8125 42.875 C 239.8125 42.398438 239.8125 41.925781 239.8125 41.4375 Z M 239.8125 41.4375 " fill-opacity="1" fill-rule="nonzero"/><path fill="#2985fc" d="M 39.417969 135.566406 C 40.507812 135.757812 40.507812 135.757812 41.621094 135.953125 C 42.375 136.085938 43.132812 136.214844 43.910156 136.351562 C 46.09375 136.730469 48.273438 137.125 50.453125 137.523438 C 51.015625 137.625 51.582031 137.730469 52.167969 137.835938 C 60.851562 139.449219 60.851562 139.449219 64.078125 141.824219 C 64.964844 143.703125 64.964844 143.703125 65.574219 145.960938 C 65.804688 146.800781 66.035156 147.636719 66.273438 148.5 C 66.496094 149.371094 66.71875 150.246094 66.949219 151.148438 C 67.273438 152.382812 67.273438 152.382812 67.605469 153.644531 C 68.289062 156.3125 68.949219 158.988281 69.597656 161.667969 C 69.847656 162.683594 70.101562 163.703125 70.351562 164.71875 C 70.882812 166.890625 71.417969 169.0625 71.945312 171.234375 C 72.789062 174.675781 73.632812 178.117188 74.480469 181.558594 C 76.277344 188.867188 78.066406 196.179688 79.859375 203.492188 C 81.808594 211.433594 83.753906 219.378906 85.707031 227.320312 C 86.554688 230.761719 87.398438 234.207031 88.238281 237.648438 C 88.765625 239.792969 89.292969 241.9375 89.820312 244.082031 C 90.0625 245.074219 90.304688 246.0625 90.546875 247.050781 C 91.804688 252.214844 93.152344 257.273438 94.921875 262.289062 C 95.394531 262.289062 95.871094 262.289062 96.359375 262.289062 C 96.359375 262.761719 96.359375 263.234375 96.359375 263.722656 C 102.222656 263.738281 108.089844 263.75 113.957031 263.757812 C 116.683594 263.761719 119.40625 263.769531 122.132812 263.777344 C 124.757812 263.785156 127.386719 263.789062 130.015625 263.789062 C 131.019531 263.792969 132.023438 263.792969 133.027344 263.796875 C 134.429688 263.804688 135.832031 263.804688 137.234375 263.804688 C 138.035156 263.804688 138.835938 263.804688 139.65625 263.808594 C 141.53125 263.851562 141.53125 263.851562 142.980469 263.003906 C 142.980469 263.476562 142.980469 263.953125 142.980469 264.4375 C 148.542969 264.363281 154.105469 264.28125 159.667969 264.195312 C 162.25 264.15625 164.832031 264.117188 167.414062 264.082031 C 169.90625 264.046875 172.398438 264.011719 174.890625 263.972656 C 176.304688 263.949219 177.71875 263.929688 179.132812 263.914062 C 179.992188 263.898438 180.855469 263.882812 181.742188 263.871094 C 182.5 263.859375 183.257812 263.847656 184.039062 263.835938 C 185.769531 263.734375 187.21875 263.425781 188.886719 263.003906 C 189.125 263.242188 189.359375 263.476562 189.605469 263.722656 C 190.675781 263.78125 191.75 263.792969 192.820312 263.78125 C 193.507812 263.777344 194.191406 263.769531 194.898438 263.765625 C 195.644531 263.757812 196.390625 263.75 197.160156 263.742188 C 198.734375 263.734375 200.308594 263.722656 201.878906 263.714844 C 204.367188 263.695312 206.855469 263.675781 209.339844 263.652344 C 211.738281 263.632812 214.132812 263.617188 216.527344 263.605469 C 217.632812 263.59375 217.632812 263.59375 218.761719 263.578125 C 228.703125 263.542969 228.703125 263.542969 231.878906 266.410156 C 232.855469 268.480469 233.265625 270.027344 233.359375 272.328125 C 232.558594 274.515625 231.96875 276.085938 230.035156 277.457031 C 227.636719 278.3125 225.320312 278.261719 222.808594 278.25 C 221.96875 278.253906 221.96875 278.253906 221.109375 278.257812 C 219.230469 278.265625 217.351562 278.261719 215.472656 278.257812 C 214.125 278.261719 212.777344 278.265625 211.429688 278.269531 C 207.769531 278.28125 204.109375 278.28125 200.449219 278.277344 C 197.394531 278.277344 194.335938 278.28125 191.277344 278.285156 C 184.066406 278.292969 176.851562 278.292969 169.636719 278.289062 C 162.199219 278.285156 154.761719 278.292969 147.324219 278.308594 C 140.9375 278.320312 134.546875 278.324219 128.160156 278.324219 C 124.347656 278.320312 120.53125 278.324219 116.71875 278.335938 C 113.128906 278.34375 109.539062 278.339844 105.949219 278.332031 C 104.636719 278.332031 103.320312 278.332031 102.007812 278.339844 C 89.445312 278.390625 89.445312 278.390625 84.164062 275.910156 C 81.191406 272.699219 80.339844 268.859375 79.320312 264.707031 C 79.164062 264.101562 79.003906 263.496094 78.84375 262.871094 C 78.152344 260.148438 77.707031 257.957031 77.707031 255.117188 C 77.234375 254.882812 76.761719 254.644531 76.273438 254.402344 C 75.890625 252.734375 75.890625 252.734375 75.589844 250.5625 C 74.921875 246.175781 73.96875 241.929688 72.867188 237.632812 C 72.679688 236.902344 72.496094 236.167969 72.304688 235.414062 C 71.914062 233.886719 71.523438 232.355469 71.132812 230.828125 C 70.53125 228.480469 69.9375 226.128906 69.347656 223.78125 C 68.96875 222.289062 68.585938 220.796875 68.203125 219.304688 C 68.027344 218.601562 67.851562 217.898438 67.667969 217.175781 C 67.503906 216.527344 67.335938 215.882812 67.160156 215.214844 C 67.015625 214.644531 66.871094 214.074219 66.722656 213.488281 C 66.292969 211.949219 66.292969 211.949219 64.796875 210.660156 C 64.820312 209.527344 64.847656 208.390625 64.882812 207.257812 C 64.699219 203.726562 63.558594 200.304688 62.644531 196.902344 C 62.238281 195.371094 61.835938 193.835938 61.433594 192.300781 C 61.253906 191.625 61.074219 190.953125 60.886719 190.257812 C 60.492188 188.433594 60.492188 188.433594 60.492188 185.566406 C 59.785156 185.210938 59.785156 185.210938 59.058594 184.847656 C 58.707031 183.472656 58.707031 183.472656 58.4375 181.605469 C 57.851562 178.078125 57.101562 174.636719 56.230469 171.171875 C 56.101562 170.667969 55.976562 170.164062 55.847656 169.648438 C 55.453125 168.097656 55.058594 166.546875 54.664062 164.996094 C 54.394531 163.925781 54.125 162.855469 53.855469 161.785156 C 53.203125 159.195312 52.542969 156.605469 51.886719 154.015625 C 48.859375 153.109375 45.910156 152.355469 42.785156 151.890625 C 42.046875 151.773438 41.308594 151.660156 40.550781 151.539062 C 39.023438 151.308594 37.492188 151.078125 35.964844 150.851562 C 31.882812 150.210938 28.273438 149.558594 24.628906 147.5625 C 23.082031 145 22.476562 143.289062 22.476562 140.300781 C 25.238281 132.363281 32.726562 134.441406 39.417969 135.566406 Z M 39.417969 135.566406 " fill-opacity="1" fill-rule="nonzero"/><path fill="#feca1c" d="M 313.929688 109.453125 C 314.324219 109.722656 314.71875 109.996094 315.128906 110.273438 C 314.65625 111.457031 314.179688 112.640625 313.695312 113.859375 C 317.453125 116.480469 320.664062 117.996094 325.171875 118.878906 C 325.40625 118.40625 325.644531 117.933594 325.886719 117.445312 C 327.070312 117.445312 328.253906 117.445312 329.472656 117.445312 C 336.019531 138.480469 333.976562 162.085938 323.800781 181.609375 C 315.476562 196.953125 303.980469 208.90625 289.164062 217.992188 C 287.148438 219.167969 287.148438 219.167969 285.71875 220.699219 C 285.246094 221.171875 284.773438 221.644531 284.285156 222.132812 C 283.574219 222.132812 282.863281 222.132812 282.132812 222.132812 C 281.199219 222.429688 280.28125 222.769531 279.371094 223.128906 C 278.554688 223.449219 278.554688 223.449219 277.71875 223.773438 C 277.132812 224 276.550781 224.230469 275.945312 224.464844 C 265.242188 228.5 254.773438 230.445312 243.398438 231.457031 C 242.289062 229.234375 243.152344 227.554688 243.714844 225.179688 C 244.488281 221.921875 244.964844 219.03125 244.835938 215.679688 C 245.308594 215.679688 245.78125 215.679688 246.269531 215.679688 C 246.359375 214.824219 246.445312 213.964844 246.539062 213.082031 C 246.808594 210.453125 247.542969 208.128906 248.421875 205.640625 C 249.289062 205.5 250.160156 205.359375 251.054688 205.214844 C 268.996094 202.105469 286.355469 194.828125 297.429688 179.703125 C 307.953125 164.402344 311.738281 146.671875 308.722656 128.363281 C 307.878906 123.859375 306.597656 119.609375 305.085938 115.292969 C 305.085938 114.347656 305.085938 113.402344 305.085938 112.425781 C 306.214844 111.785156 307.351562 111.160156 308.492188 110.542969 C 309.125 110.195312 309.757812 109.84375 310.410156 109.484375 C 312.257812 108.839844 312.257812 108.839844 313.929688 109.453125 Z M 313.929688 109.453125 " fill-opacity="1" fill-rule="nonzero"/><path fill="#fec919" d="M 130.652344 115.5625 C 131.507812 115.597656 131.507812 115.597656 132.375 115.628906 C 142.027344 116.125 142.027344 116.125 145.851562 119.148438 C 148.5 122.628906 148.21875 126.558594 148.4375 130.78125 C 148.5625 132.945312 148.746094 134.738281 149.4375 136.804688 C 148.730469 137.503906 148.011719 138.191406 147.285156 138.867188 C 146.886719 139.25 146.484375 139.632812 146.074219 140.027344 C 142.222656 142.535156 137.273438 142.800781 132.78125 143.152344 C 131.980469 143.222656 131.980469 143.222656 131.167969 143.292969 C 129.484375 143.433594 127.804688 143.570312 126.125 143.707031 C 124.976562 143.804688 123.828125 143.902344 122.679688 144 C 119.882812 144.234375 117.085938 144.464844 114.289062 144.691406 C 116.476562 145.417969 116.476562 145.417969 118.59375 144.691406 C 118.59375 145.402344 118.59375 146.113281 118.59375 146.84375 C 119.308594 146.667969 119.308594 146.667969 120.039062 146.488281 C 122.609375 146.054688 125.113281 146.039062 127.707031 146.058594 C 128.488281 146.058594 128.488281 146.058594 129.285156 146.058594 C 130.9375 146.0625 132.585938 146.074219 134.238281 146.082031 C 135.363281 146.085938 136.488281 146.089844 137.609375 146.09375 C 140.355469 146.101562 143.105469 146.113281 145.851562 146.128906 C 145.851562 147.074219 145.851562 148.019531 145.851562 148.996094 C 145.332031 149.453125 145.332031 149.453125 144.804688 149.917969 C 143.089844 151.824219 143.285156 153.988281 143.203125 156.433594 C 143.15625 157.371094 143.109375 158.308594 143.0625 159.273438 C 142.976562 162.011719 142.972656 164.75 142.976562 167.488281 C 142.976562 168.324219 142.976562 169.160156 142.976562 170.019531 C 142.980469 170.96875 142.980469 170.96875 142.980469 171.941406 C 137.730469 171.5 132.480469 171.058594 127.226562 170.613281 C 124.789062 170.40625 122.351562 170.199219 119.910156 169.996094 C 117.09375 169.761719 114.277344 169.519531 111.460938 169.28125 C 110.601562 169.207031 109.742188 169.136719 108.859375 169.066406 C 87.066406 167.1875 87.066406 167.1875 82.730469 162.621094 C 82.019531 162.144531 81.308594 161.671875 80.578125 161.183594 C 81.050781 161.183594 81.523438 161.183594 82.011719 161.183594 C 81.890625 160.691406 81.769531 160.195312 81.640625 159.6875 C 81.25 157.339844 81.308594 155.269531 81.472656 152.894531 C 81.523438 152.09375 81.570312 151.296875 81.621094 150.472656 C 82.042969 148.105469 82.40625 147.039062 84.164062 145.410156 C 85.921875 144.921875 85.921875 144.921875 87.929688 144.78125 C 88.585938 144.726562 89.238281 144.667969 89.914062 144.609375 C 92.054688 144.691406 92.054688 144.691406 94.355469 145.398438 C 97.820312 146.328125 100.996094 146.285156 104.5625 146.21875 C 105.554688 146.207031 105.554688 146.207031 106.566406 146.199219 C 108.183594 146.179688 109.800781 146.15625 111.421875 146.128906 C 111.183594 145.417969 110.945312 144.707031 110.703125 143.976562 C 109.3125 143.921875 109.3125 143.921875 107.894531 143.871094 C 85.273438 142.933594 85.273438 142.933594 81.292969 138.957031 C 79.851562 135.234375 79.683594 132.015625 79.949219 128.113281 C 79.964844 127.617188 79.984375 127.121094 80 126.613281 C 80.210938 123.171875 80.972656 121.277344 83.445312 118.878906 C 84.804688 118.085938 84.804688 118.085938 86.179688 117.625 C 86.628906 117.464844 87.078125 117.308594 87.539062 117.144531 C 101.105469 113.722656 116.800781 114.960938 130.652344 115.5625 Z M 130.652344 115.5625 " fill-opacity="1" fill-rule="nonzero"/><path fill="#2883fb" d="M 350.992188 67.253906 C 352.425781 68.6875 352.425781 68.6875 352.582031 71.265625 C 352.503906 74.421875 351.984375 77.429688 351.351562 80.519531 C 351.25 81.039062 351.144531 81.5625 351.039062 82.097656 C 350.789062 83.363281 350.53125 84.628906 350.273438 85.894531 C 351.269531 86.226562 351.269531 86.226562 352.28125 86.5625 C 353.828125 87.078125 355.371094 87.605469 356.910156 88.136719 C 358.765625 88.835938 358.765625 88.835938 360.316406 88.765625 C 360.554688 89.238281 360.789062 89.710938 361.035156 90.199219 C 361.507812 90.433594 361.980469 90.671875 362.46875 90.914062 C 363.558594 92.519531 363.894531 93.589844 363.992188 95.53125 C 362.039062 99.984375 355.390625 102.03125 351.15625 103.945312 C 350.582031 104.207031 350.007812 104.472656 349.414062 104.746094 C 348.207031 105.296875 347 105.84375 345.792969 106.394531 C 343.945312 107.230469 342.097656 108.078125 340.25 108.921875 C 339.074219 109.460938 337.898438 109.996094 336.722656 110.53125 C 336.171875 110.785156 335.621094 111.035156 335.050781 111.296875 C 329.863281 113.648438 325.871094 114.828125 320.375 112.964844 C 318.125 111.777344 316.363281 110.449219 314.410156 108.839844 C 313.570312 109.222656 313.570312 109.222656 312.714844 109.613281 C 300.65625 115.097656 288.589844 120.574219 276.519531 126.039062 C 275.1875 126.640625 273.855469 127.246094 272.519531 127.847656 C 270.636719 128.703125 268.75 129.554688 266.863281 130.410156 C 266.304688 130.660156 265.746094 130.914062 265.171875 131.175781 C 264.382812 131.53125 264.382812 131.53125 263.574219 131.894531 C 262.828125 132.234375 262.828125 132.234375 262.066406 132.578125 C 260.648438 133.207031 259.214844 133.792969 257.777344 134.378906 C 255.542969 135.164062 255.542969 135.164062 254.601562 136.867188 C 254.425781 137.410156 254.25 137.949219 254.070312 138.507812 C 252.578125 142.398438 250.617188 144.476562 247.078125 146.710938 C 243.234375 148.167969 240.273438 147.894531 236.496094 146.441406 C 233.101562 144.820312 231.648438 142.898438 229.773438 139.675781 C 228.675781 136.390625 228.390625 132.976562 229.542969 129.65625 C 231.507812 125.945312 234.339844 123.09375 238.378906 121.746094 C 239.796875 121.664062 241.21875 121.621094 242.636719 121.613281 C 243.382812 121.601562 244.128906 121.59375 244.898438 121.582031 C 246.988281 121.746094 246.988281 121.746094 248.46875 122.519531 C 250.425781 123.453125 251.347656 123.027344 253.441406 122.464844 C 255.25 121.714844 257.019531 120.9375 258.789062 120.105469 C 259.3125 119.867188 259.835938 119.625 260.375 119.378906 C 262.085938 118.589844 263.792969 117.792969 265.5 116.996094 C 266.6875 116.449219 267.871094 115.898438 269.058594 115.351562 C 272.101562 113.941406 275.144531 112.527344 278.1875 111.109375 C 279.929688 110.300781 281.671875 109.488281 283.417969 108.679688 C 286.078125 107.445312 288.738281 106.207031 291.398438 104.964844 C 292.386719 104.503906 293.378906 104.042969 294.367188 103.582031 C 295.746094 102.941406 297.121094 102.296875 298.496094 101.652344 C 299.65625 101.109375 299.65625 101.109375 300.839844 100.558594 C 302.804688 99.585938 304.660156 98.523438 306.519531 97.367188 C 306.046875 97.132812 305.574219 96.894531 305.085938 96.652344 C 306.03125 96.414062 306.980469 96.179688 307.957031 95.933594 C 307.921875 95.535156 307.890625 95.136719 307.855469 94.722656 C 307.65625 90.542969 308.148438 87.085938 310.824219 83.746094 C 314.511719 80.855469 318.722656 79.226562 323.019531 77.425781 C 328.679688 75.011719 334.238281 72.503906 339.699219 69.671875 C 343.765625 67.632812 346.46875 66.957031 350.992188 67.253906 Z M 350.992188 67.253906 " fill-opacity="1" fill-rule="nonzero"/><path fill="#fefefc" d="M 305.085938 113.144531 C 311.414062 132.164062 312.953125 151.738281 303.785156 170.238281 C 294.835938 187.230469 280.605469 197.691406 262.5 203.464844 C 257.820312 204.800781 253.300781 205.738281 248.421875 205.640625 C 248.726562 201.957031 249.132812 198.371094 249.902344 194.75 C 251.105469 188.433594 251.0625 181.835938 249.855469 175.527344 C 248.082031 175.882812 248.082031 175.882812 246.269531 176.242188 C 246.269531 175.769531 246.269531 175.296875 246.269531 174.808594 C 246.996094 174.660156 247.726562 174.511719 248.476562 174.359375 C 258.550781 172.164062 267.652344 168.164062 273.605469 159.277344 C 280.675781 147.914062 281.027344 136.992188 280.699219 123.898438 C 286.582031 120.886719 292.488281 117.953125 298.542969 115.292969 C 299.03125 115.078125 299.519531 114.859375 300.027344 114.636719 C 303.472656 113.144531 303.472656 113.144531 305.085938 113.144531 Z M 305.085938 113.144531 " fill-opacity="1" fill-rule="nonzero"/><path fill="#feca1c" d="M 211.121094 150.429688 C 214.152344 153.769531 214.140625 157.128906 214.171875 161.453125 C 214.1875 161.996094 214.199219 162.539062 214.214844 163.09375 C 214.238281 166.417969 213.945312 168.5 211.839844 171.222656 C 209.691406 173.222656 207.460938 173.984375 204.667969 174.808594 C 206.167969 176.308594 209.261719 175.84375 211.292969 175.972656 C 213.226562 176.234375 214.476562 176.699219 216.144531 177.675781 C 216.144531 178.386719 216.144531 179.097656 216.144531 179.828125 C 213.105469 181.304688 210.320312 181.511719 207 181.488281 C 206.492188 181.484375 205.984375 181.484375 205.464844 181.484375 C 201.4375 181.410156 198.304688 180.6875 194.625 179.109375 C 194.625 178.164062 194.625 177.21875 194.625 176.242188 C 184.210938 176.242188 173.796875 176.242188 163.066406 176.242188 C 163.066406 176.007812 163.066406 175.769531 163.066406 175.527344 C 162.285156 175.402344 161.507812 175.28125 160.707031 175.15625 C 159.667969 174.980469 158.632812 174.804688 157.59375 174.628906 C 157.085938 174.550781 156.574219 174.472656 156.046875 174.390625 C 152.574219 173.785156 149.929688 172.984375 147.285156 170.507812 C 146.828125 168.464844 146.648438 166.992188 146.65625 164.949219 C 146.640625 164.464844 146.628906 163.976562 146.613281 163.476562 C 146.574219 161.996094 146.566406 160.515625 146.566406 159.035156 C 146.558594 158.519531 146.550781 158 146.542969 157.46875 C 146.476562 151.75 146.476562 151.75 148.71875 148.996094 C 164.457031 142.445312 196.109375 141.921875 211.121094 150.429688 Z M 199.644531 174.808594 C 199.410156 175.519531 199.171875 176.230469 198.929688 176.960938 C 200.824219 176.960938 202.714844 176.960938 204.667969 176.960938 C 204.429688 176.25 204.195312 175.539062 203.949219 174.808594 C 202.53125 174.808594 201.109375 174.808594 199.644531 174.808594 Z M 197.496094 176.242188 C 197.257812 176.714844 197.019531 177.191406 196.777344 177.675781 C 197.25 177.675781 197.722656 177.675781 198.210938 177.675781 C 197.976562 177.203125 197.738281 176.730469 197.496094 176.242188 Z M 197.496094 176.242188 " fill-opacity="1" fill-rule="nonzero"/><path fill="#2884fc" d="M 125.765625 286.667969 C 130.304688 292.121094 131.410156 296.855469 130.785156 303.875 C 129.566406 308.3125 126.707031 311.429688 122.898438 313.914062 C 118.417969 316.109375 113.042969 316.175781 108.253906 314.882812 C 103.730469 312.847656 100.484375 309.101562 98.507812 304.59375 C 97.464844 299.363281 97.902344 295.53125 100.480469 290.835938 C 103.394531 287.199219 106.621094 284.476562 111.195312 283.304688 C 116.398438 282.816406 121.527344 283.382812 125.765625 286.667969 Z M 125.765625 286.667969 " fill-opacity="1" fill-rule="nonzero"/><path fill="#2886fd" d="M 206.347656 287.539062 C 209.703125 291.152344 211.394531 295.929688 211.324219 300.824219 C 210.734375 305.539062 208.355469 309.546875 204.667969 312.480469 C 200.402344 315.085938 196.5625 316.507812 191.53125 315.664062 C 186.800781 314.464844 182.460938 311.996094 179.921875 307.730469 C 178.023438 303.464844 177.203125 299.460938 178.726562 294.917969 C 180.949219 290.015625 183.957031 286.0625 188.980469 283.839844 C 195.136719 282.089844 201.460938 283.460938 206.347656 287.539062 Z M 206.347656 287.539062 " fill-opacity="1" fill-rule="nonzero"/><path fill="#feca1b" d="M 95.226562 145.734375 C 102.386719 147.464844 109.695312 147.253906 117.023438 147.335938 C 118.503906 147.359375 119.980469 147.386719 121.457031 147.410156 C 125.046875 147.472656 128.632812 147.519531 132.222656 147.5625 C 131.75 148.980469 131.273438 150.402344 130.785156 151.863281 C 126.925781 152.511719 123.222656 152.675781 119.3125 152.652344 C 118.714844 152.648438 118.117188 152.648438 117.5 152.648438 C 115.609375 152.644531 113.714844 152.632812 111.824219 152.625 C 110.535156 152.621094 109.242188 152.617188 107.953125 152.617188 C 104.804688 152.609375 101.65625 152.59375 98.507812 152.582031 C 98.863281 158.257812 98.863281 158.257812 99.226562 164.054688 C 100.53125 164.148438 101.835938 164.242188 103.179688 164.34375 C 104.894531 164.46875 106.613281 164.597656 108.328125 164.726562 C 109.1875 164.789062 110.046875 164.851562 110.929688 164.914062 C 111.761719 164.976562 112.589844 165.039062 113.445312 165.105469 C 114.207031 165.160156 114.972656 165.214844 115.757812 165.273438 C 117.714844 165.472656 119.5625 165.6875 121.460938 166.203125 C 121.816406 166.914062 121.816406 166.914062 122.179688 167.636719 C 123.992188 168.109375 123.992188 168.109375 125.765625 168.355469 C 125.765625 168.59375 125.765625 168.828125 125.765625 169.074219 C 116.742188 169.296875 107.832031 169.300781 98.867188 168.132812 C 97.875 168.003906 97.875 168.003906 96.863281 167.875 C 86.25 166.359375 86.25 166.359375 82.730469 162.621094 C 82.019531 162.144531 81.308594 161.671875 80.578125 161.183594 C 81.050781 161.183594 81.523438 161.183594 82.011719 161.183594 C 81.890625 160.691406 81.769531 160.195312 81.640625 159.6875 C 81.25 157.339844 81.308594 155.269531 81.472656 152.894531 C 81.546875 151.695312 81.546875 151.695312 81.621094 150.472656 C 82.039062 148.121094 82.449219 147.054688 84.164062 145.410156 C 87.875 144.097656 91.539062 144.660156 95.226562 145.734375 Z M 95.226562 145.734375 " fill-opacity="1" fill-rule="nonzero"/><path fill="#fee351" d="M 159.476562 158.316406 C 172.734375 158.316406 185.988281 158.316406 199.644531 158.316406 C 199.644531 162.339844 199.644531 166.363281 199.644531 170.507812 C 194.804688 172.121094 194.804688 172.121094 192.324219 172.125 C 191.769531 172.128906 191.214844 172.136719 190.644531 172.140625 C 190.0625 172.136719 189.476562 172.132812 188.871094 172.132812 C 188.257812 172.132812 187.640625 172.132812 187.007812 172.136719 C 185.710938 172.136719 184.410156 172.132812 183.113281 172.128906 C 181.144531 172.121094 179.175781 172.128906 177.207031 172.136719 C 175.941406 172.136719 174.671875 172.132812 173.40625 172.132812 C 172.535156 172.136719 172.535156 172.136719 171.648438 172.140625 C 161.75 172.058594 161.75 172.058594 159.476562 169.789062 C 159.476562 166.003906 159.476562 162.21875 159.476562 158.316406 Z M 159.476562 158.316406 " fill-opacity="1" fill-rule="nonzero"/><path fill="#fee34f" d="M 91.335938 126.765625 C 104.355469 127.003906 117.375 127.242188 130.785156 127.484375 C 130.785156 131.269531 130.785156 135.054688 130.785156 138.957031 C 124.414062 140.222656 118.28125 140.617188 111.8125 140.578125 C 110.25 140.570312 108.691406 140.578125 107.132812 140.585938 C 101.703125 140.589844 96.636719 140.269531 91.335938 138.957031 C 91.335938 134.933594 91.335938 130.910156 91.335938 126.765625 Z M 91.335938 126.765625 " fill-opacity="1" fill-rule="nonzero"/><path fill="#fee350" d="M 130.070312 151.148438 C 130.132812 153.386719 130.171875 155.628906 130.203125 157.867188 C 130.222656 158.507812 130.242188 159.144531 130.257812 159.800781 C 130.265625 160.410156 130.273438 161.023438 130.28125 161.648438 C 130.292969 162.214844 130.300781 162.777344 130.3125 163.355469 C 130.191406 164.054688 130.191406 164.054688 130.070312 164.769531 C 124.570312 168.4375 114.316406 166.003906 107.96875 165.53125 C 107.125 165.46875 106.28125 165.40625 105.414062 165.34375 C 104.625 165.28125 103.835938 165.21875 103.023438 165.152344 C 102.308594 165.097656 101.597656 165.042969 100.859375 164.984375 C 99.226562 164.769531 99.226562 164.769531 98.507812 164.054688 C 98.457031 162.121094 98.441406 160.203125 98.464844 158.273438 C 98.46875 157.726562 98.472656 157.183594 98.472656 156.625 C 98.484375 155.277344 98.496094 153.929688 98.507812 152.582031 C 99.324219 152.5625 100.136719 152.542969 100.976562 152.527344 C 103.996094 152.457031 107.015625 152.386719 110.035156 152.3125 C 111.34375 152.28125 112.652344 152.253906 113.957031 152.222656 C 115.835938 152.183594 117.714844 152.136719 119.59375 152.089844 C 120.179688 152.078125 120.765625 152.066406 121.367188 152.054688 C 124.375 151.976562 127.125 151.148438 130.070312 151.148438 Z M 130.070312 151.148438 " fill-opacity="1" fill-rule="nonzero"/><path fill="#fdc010" d="M 314.410156 192.019531 C 314.863281 193.316406 314.863281 193.316406 315.128906 194.886719 C 313.964844 196.609375 312.832031 198.054688 311.453125 199.589844 C 311.0625 200.035156 310.671875 200.476562 310.269531 200.933594 C 304.058594 207.816406 297.042969 213.160156 289.164062 217.992188 C 287.148438 219.167969 287.148438 219.167969 285.71875 220.699219 C 285.246094 221.171875 284.773438 221.644531 284.285156 222.132812 C 283.574219 222.132812 282.863281 222.132812 282.132812 222.132812 C 281.09375 222.457031 280.0625 222.820312 279.042969 223.207031 C 278.152344 223.542969 278.152344 223.542969 277.238281 223.882812 C 276.621094 224.117188 276 224.355469 275.363281 224.597656 C 274.140625 225.0625 272.914062 225.523438 271.691406 225.984375 C 270.878906 226.292969 270.878906 226.292969 270.046875 226.609375 C 266.804688 227.75 264.074219 227.9375 260.613281 227.871094 C 262.53125 225.953125 264.667969 225.554688 267.203125 224.824219 C 285.753906 219.222656 303.878906 208.859375 314.410156 192.019531 Z M 314.410156 192.019531 " fill-opacity="1" fill-rule="nonzero"/><path fill="#f7c930" d="M 197.941406 174.71875 C 198.503906 174.75 199.066406 174.777344 199.644531 174.808594 C 199.410156 175.519531 199.171875 176.230469 198.929688 176.960938 C 200.609375 176.777344 202.285156 176.535156 203.949219 176.242188 C 204.1875 175.769531 204.421875 175.296875 204.667969 174.808594 C 204.902344 175.046875 205.140625 175.28125 205.382812 175.527344 C 207.351562 175.730469 209.320312 175.847656 211.292969 175.972656 C 213.226562 176.234375 214.476562 176.699219 216.144531 177.675781 C 216.144531 178.386719 216.144531 179.097656 216.144531 179.828125 C 213.105469 181.304688 210.320312 181.511719 207 181.488281 C 206.492188 181.484375 205.984375 181.484375 205.464844 181.484375 C 201.4375 181.410156 198.304688 180.6875 194.625 179.109375 C 194.625 175.953125 194.648438 174.875 197.941406 174.71875 Z M 197.496094 176.242188 C 197.257812 176.714844 197.019531 177.191406 196.777344 177.675781 C 197.25 177.675781 197.722656 177.675781 198.210938 177.675781 C 197.976562 177.203125 197.738281 176.730469 197.496094 176.242188 Z M 197.496094 176.242188 " fill-opacity="1" fill-rule="nonzero"/><path fill="#fec40f" d="M 178.128906 62.234375 C 178.484375 62.941406 178.484375 62.941406 178.84375 63.667969 C 178.609375 64.140625 178.371094 64.613281 178.128906 65.101562 C 177.417969 65.339844 176.707031 65.574219 175.976562 65.820312 C 175.503906 66.527344 175.027344 67.238281 174.542969 67.96875 C 174.066406 67.96875 173.59375 67.96875 173.105469 67.96875 C 172.945312 68.367188 172.78125 68.769531 172.613281 69.179688 C 171.167969 71.726562 168.953125 73.589844 166.851562 75.609375 C 159.464844 83.25 154.390625 93.148438 151.519531 103.3125 C 151.304688 103.953125 151.089844 104.59375 150.871094 105.257812 C 150.160156 105.609375 150.160156 105.609375 149.4375 105.972656 C 149.199219 104.554688 148.964844 103.132812 148.71875 101.671875 C 149.191406 101.671875 149.664062 101.671875 150.152344 101.671875 C 150.222656 101.195312 150.289062 100.722656 150.359375 100.234375 C 153.890625 85.425781 165.886719 70.8125 178.128906 62.234375 Z M 178.128906 62.234375 " fill-opacity="1" fill-rule="nonzero"/><path fill="#fec30d" d="M 201.796875 171.941406 C 203.472656 171.96875 205.144531 171.972656 206.820312 171.941406 C 206.820312 172.652344 206.820312 173.359375 206.820312 174.09375 C 197.277344 175.828125 187.796875 175.675781 178.128906 175.527344 C 178.128906 175.289062 178.128906 175.050781 178.128906 174.808594 C 182.386719 174.453125 182.386719 174.453125 186.734375 174.09375 C 183.183594 173.855469 179.632812 173.617188 175.976562 173.375 C 175.976562 173.136719 175.976562 172.902344 175.976562 172.65625 C 179.078125 172.433594 182.175781 172.21875 185.277344 172.003906 C 186.332031 171.933594 187.386719 171.859375 188.441406 171.78125 C 189.960938 171.671875 191.476562 171.570312 192.996094 171.46875 C 193.910156 171.402344 194.824219 171.339844 195.761719 171.273438 C 197.953125 171.230469 199.679688 171.453125 201.796875 171.941406 Z M 201.796875 171.941406 " fill-opacity="1" fill-rule="nonzero"/><path fill="#fdbf0f" d="M 330.191406 156.882812 C 330.429688 156.882812 330.664062 156.882812 330.910156 156.882812 C 331.105469 161.234375 330.550781 164.617188 329.117188 168.714844 C 328.925781 169.269531 328.734375 169.824219 328.539062 170.394531 C 325.8125 178.082031 322.324219 185.570312 317.28125 192.019531 C 316.808594 192.019531 316.332031 192.019531 315.84375 192.019531 C 316.910156 189.085938 318.355469 186.570312 319.96875 183.90625 C 324.367188 176.414062 327.179688 168.402344 329.085938 159.9375 C 329.472656 158.316406 329.472656 158.316406 330.191406 156.882812 Z M 330.191406 156.882812 " fill-opacity="1" fill-rule="nonzero"/><path fill="#fec30d" d="M 92.726562 145.992188 C 93.824219 146 93.824219 146 94.941406 146.007812 C 97.074219 146.128906 97.074219 146.128906 98.546875 146.480469 C 101.664062 147.015625 104.761719 147.015625 107.914062 147.070312 C 108.957031 147.09375 108.957031 147.09375 110.023438 147.117188 C 112.238281 147.164062 114.453125 147.207031 116.664062 147.246094 C 118.167969 147.277344 119.675781 147.308594 121.179688 147.339844 C 124.859375 147.417969 128.539062 147.492188 132.222656 147.5625 C 129.277344 149.199219 126.691406 149.183594 123.390625 149.128906 C 122.78125 149.125 122.171875 149.121094 121.546875 149.113281 C 115.507812 149.042969 109.472656 148.863281 103.441406 148.683594 C 102.027344 148.640625 102.027344 148.640625 100.582031 148.597656 C 95.5625 148.429688 90.585938 148.15625 85.597656 147.5625 C 88.121094 146.199219 89.839844 145.953125 92.726562 145.992188 Z M 92.726562 145.992188 " fill-opacity="1" fill-rule="nonzero"/><path fill="#fec60e" d="M 106.398438 165.488281 C 108.238281 165.46875 110.074219 165.453125 111.914062 165.441406 C 112.429688 165.4375 112.949219 165.429688 113.480469 165.425781 C 116.21875 165.410156 118.828125 165.402344 121.460938 166.203125 C 121.699219 166.675781 121.9375 167.152344 122.179688 167.636719 C 123.992188 168.109375 123.992188 168.109375 125.765625 168.355469 C 125.765625 168.59375 125.765625 168.828125 125.765625 169.074219 C 123.703125 169.09375 121.640625 169.105469 119.578125 169.117188 C 118.710938 169.125 118.710938 169.125 117.824219 169.136719 C 114.644531 169.148438 111.679688 169 108.550781 168.355469 C 108.550781 167.882812 108.550781 167.410156 108.550781 166.921875 C 107.839844 166.449219 107.132812 165.976562 106.398438 165.488281 Z M 106.398438 165.488281 " fill-opacity="1" fill-rule="nonzero"/><path fill="#fdc013" d="M 330.910156 128.917969 C 334.042969 132.050781 333.101562 138.6875 333.148438 142.945312 C 333.054688 151.09375 333.054688 151.09375 332.34375 154.730469 C 331.632812 155.085938 331.632812 155.085938 330.910156 155.449219 C 330.910156 146.695312 330.910156 137.9375 330.910156 128.917969 Z M 330.910156 128.917969 " fill-opacity="1" fill-rule="nonzero"/><path fill="#2076f1" d="M 186.734375 285.234375 C 187.445312 285.46875 188.15625 285.707031 188.886719 285.949219 C 188.503906 286.195312 188.125 286.4375 187.730469 286.691406 C 184.011719 289.242188 181.507812 291.5625 180.28125 295.988281 C 179.519531 300.886719 180.101562 304.757812 182.734375 308.980469 C 184.515625 311.105469 186.371094 312.0625 188.886719 313.199219 C 187.820312 313.554688 187.820312 313.554688 186.734375 313.914062 C 182.285156 311.328125 180.175781 308.746094 178.308594 303.921875 C 177.605469 298.144531 178.453125 294.421875 181.714844 289.535156 C 183.21875 287.847656 184.71875 286.289062 186.734375 285.234375 Z M 186.734375 285.234375 " fill-opacity="1" fill-rule="nonzero"/><path fill="#f9c31e" d="M 244.835938 215.679688 C 245.308594 215.679688 245.78125 215.679688 246.269531 215.679688 C 247.054688 218.722656 246.933594 221.386719 246.671875 224.507812 C 246.601562 225.40625 246.527344 226.308594 246.453125 227.234375 C 246.390625 227.917969 246.332031 228.601562 246.269531 229.304688 C 249.109375 228.949219 249.109375 228.949219 252.007812 228.585938 C 251.769531 229.296875 251.535156 230.007812 251.289062 230.738281 C 248.6875 230.976562 246.082031 231.210938 243.398438 231.457031 C 242.289062 229.234375 243.148438 227.554688 243.714844 225.179688 C 244.488281 221.921875 244.964844 219.03125 244.835938 215.679688 Z M 244.835938 215.679688 " fill-opacity="1" fill-rule="nonzero"/><path fill="#fed533" d="M 110.703125 143.257812 C 114.015625 143.257812 117.332031 143.257812 120.746094 143.257812 C 120.746094 143.496094 120.746094 143.730469 120.746094 143.976562 C 117.550781 144.332031 117.550781 144.332031 114.289062 144.691406 C 116.976562 145.695312 116.976562 145.695312 118.59375 144.691406 C 118.59375 145.402344 118.59375 146.113281 118.59375 146.84375 C 119.035156 146.710938 119.480469 146.578125 119.9375 146.441406 C 123.136719 145.992188 126.164062 146.441406 129.351562 146.84375 C 129.351562 147.082031 129.351562 147.316406 129.351562 147.5625 C 119.882812 147.5625 110.417969 147.5625 100.660156 147.5625 C 100.660156 147.324219 100.660156 147.089844 100.660156 146.84375 C 104.210938 146.609375 107.761719 146.371094 111.421875 146.128906 C 111.183594 145.179688 110.945312 144.234375 110.703125 143.257812 Z M 110.703125 143.257812 " fill-opacity="1" fill-rule="nonzero"/><path fill="#f9c218" d="M 296.480469 66.535156 C 299.511719 66.90625 301.109375 68.632812 303.292969 70.660156 C 303.964844 71.277344 304.640625 71.894531 305.332031 72.53125 C 307.082031 74.269531 308.574219 76.082031 310.105469 78.007812 C 310.582031 78.246094 311.054688 78.480469 311.542969 78.726562 C 311.304688 79.433594 311.070312 80.144531 310.824219 80.875 C 309.640625 80.875 308.457031 80.875 307.238281 80.875 C 307.148438 80.34375 307.0625 79.8125 306.96875 79.261719 C 306.535156 77.355469 306.167969 76.046875 305.085938 74.421875 C 303.90625 73.679688 302.707031 72.96875 301.5 72.273438 C 299.75 70.925781 298.015625 69.558594 296.480469 67.96875 C 296.480469 67.496094 296.480469 67.023438 296.480469 66.535156 Z M 296.480469 66.535156 " fill-opacity="1" fill-rule="nonzero"/><path fill="#fcc20e" d="M 213.273438 177.675781 C 212.894531 179.070312 212.894531 179.070312 211.839844 180.546875 C 209.949219 180.921875 208.359375 181.109375 206.460938 181.171875 C 205.964844 181.207031 205.472656 181.238281 204.960938 181.273438 C 203.667969 181.339844 202.375 181.308594 201.082031 181.261719 C 200.605469 180.789062 200.132812 180.316406 199.644531 179.828125 C 200.355469 179.828125 201.066406 179.828125 201.796875 179.828125 C 201.796875 179.355469 201.796875 178.882812 201.796875 178.394531 C 201.324219 178.15625 200.851562 177.921875 200.363281 177.675781 C 202.246094 177.539062 204.128906 177.402344 206.011719 177.273438 C 206.816406 177.214844 206.816406 177.214844 207.632812 177.152344 C 211.675781 176.878906 211.675781 176.878906 213.273438 177.675781 Z M 213.273438 177.675781 " fill-opacity="1" fill-rule="nonzero"/><path fill="#3189fb" d="M 93.488281 222.851562 C 94.703125 225.058594 95.355469 227.160156 95.929688 229.613281 C 96.109375 230.359375 96.289062 231.109375 96.472656 231.878906 C 96.84375 233.441406 97.210938 235.007812 97.578125 236.574219 C 98.921875 242.140625 100.480469 246.402344 104.246094 250.816406 C 101.390625 249.890625 100.128906 249.027344 98.507812 246.511719 C 97.570312 244.046875 96.945312 241.488281 96.269531 238.9375 C 96.078125 238.265625 95.890625 237.59375 95.695312 236.898438 C 94.429688 232.222656 93.773438 227.683594 93.488281 222.851562 Z M 93.488281 222.851562 " fill-opacity="1" fill-rule="nonzero"/><path fill="#fec010" d="M 149.4375 149.710938 C 149.4375 151.8125 149.363281 153.898438 149.28125 155.996094 C 149.246094 156.796875 149.214844 157.597656 149.179688 158.425781 C 149.128906 159.679688 149.128906 159.679688 149.078125 160.960938 C 149.042969 161.804688 149.007812 162.652344 148.972656 163.523438 C 148.890625 165.613281 148.804688 167.699219 148.71875 169.789062 C 145.457031 166.527344 146.457031 159.757812 146.402344 155.414062 C 146.566406 153.328125 146.851562 152.15625 148 150.429688 C 148.476562 150.191406 148.949219 149.957031 149.4375 149.710938 Z M 149.4375 149.710938 " fill-opacity="1" fill-rule="nonzero"/><path fill="#fac516" d="M 325.171875 117.445312 C 326.589844 117.445312 328.011719 117.445312 329.472656 117.445312 C 330.65625 121.152344 331.722656 124.996094 331.625 128.917969 C 331.152344 129.390625 330.679688 129.863281 330.191406 130.351562 C 329.023438 128.015625 329.226562 125.429688 329.097656 122.847656 C 328.984375 122.246094 328.871094 121.648438 328.757812 121.03125 C 326.335938 119.417969 326.03125 119.492188 323.332031 119.957031 C 321.625 120.246094 321.625 120.246094 320.148438 120.3125 C 319.675781 119.839844 319.203125 119.367188 318.714844 118.878906 C 321.136719 118.273438 322.785156 118.085938 325.171875 118.878906 C 325.171875 118.40625 325.171875 117.933594 325.171875 117.445312 Z M 325.171875 117.445312 " fill-opacity="1" fill-rule="nonzero"/><path fill="#fec20c" d="M 137.242188 117.445312 C 138.242188 117.347656 139.242188 117.277344 140.246094 117.222656 C 140.804688 117.179688 141.359375 117.136719 141.9375 117.09375 C 144.710938 117.648438 145.648438 118.75 147.285156 121.03125 C 147.710938 123.394531 147.625 125.675781 147.507812 128.066406 C 147.484375 129.015625 147.484375 129.015625 147.460938 129.988281 C 147.417969 131.542969 147.351562 133.097656 147.285156 134.65625 C 147.046875 134.65625 146.8125 134.65625 146.566406 134.65625 C 145.96875 130.121094 145.53125 125.585938 145.132812 121.03125 C 142.527344 120.085938 139.925781 119.136719 137.242188 118.164062 C 137.242188 117.925781 137.242188 117.6875 137.242188 117.445312 Z M 137.242188 117.445312 " fill-opacity="1" fill-rule="nonzero"/><path fill="#4e94ed" d="M 230.488281 192.019531 C 234.644531 191.671875 237.898438 192.253906 241.25 194.886719 C 243.179688 198.597656 242.585938 201.679688 241.753906 205.613281 C 241.25 207.074219 241.25 207.074219 239.8125 207.792969 C 239.839844 206.664062 239.839844 206.664062 239.863281 205.515625 C 239.878906 204.527344 239.890625 203.539062 239.902344 202.550781 C 239.914062 202.054688 239.925781 201.558594 239.941406 201.050781 C 239.964844 198.347656 239.917969 197.191406 238.378906 194.886719 C 236.539062 194.363281 236.539062 194.363281 234.792969 194.167969 C 234.792969 193.695312 234.792969 193.222656 234.792969 192.734375 C 233.371094 192.734375 231.953125 192.734375 230.488281 192.734375 C 230.488281 192.5 230.488281 192.261719 230.488281 192.019531 Z M 230.488281 192.019531 " fill-opacity="1" fill-rule="nonzero"/><path fill="#247af1" d="M 198.929688 284.515625 C 202.191406 284.898438 204.246094 286.078125 206.820312 288.101562 C 210.457031 292.746094 211.320312 296.703125 211.121094 302.441406 C 210.648438 302.679688 210.175781 302.914062 209.6875 303.160156 C 209.660156 302.640625 209.632812 302.121094 209.605469 301.585938 C 209.234375 296.117188 208.605469 292.417969 204.351562 288.683594 C 202.578125 287.25 200.78125 285.847656 198.929688 284.515625 Z M 198.929688 284.515625 " fill-opacity="1" fill-rule="nonzero"/><path fill="#f8c726" d="M 92.769531 146.128906 C 92.269531 146.207031 91.769531 146.285156 91.253906 146.367188 C 90.601562 146.480469 89.945312 146.59375 89.273438 146.710938 C 88.625 146.816406 87.976562 146.925781 87.308594 147.039062 C 85.351562 147.441406 85.351562 147.441406 84.164062 149.710938 C 83.886719 150.898438 83.640625 152.09375 83.445312 153.296875 C 82.972656 153.296875 82.5 153.296875 82.011719 153.296875 C 82.011719 154.71875 82.011719 156.136719 82.011719 157.601562 C 81.773438 157.601562 81.539062 157.601562 81.292969 157.601562 C 81.355469 156.105469 81.433594 154.613281 81.519531 153.117188 C 81.558594 152.285156 81.601562 151.453125 81.644531 150.597656 C 82.03125 148.148438 82.347656 147.082031 84.164062 145.410156 C 85.890625 144.921875 85.890625 144.921875 87.796875 144.78125 C 88.738281 144.695312 88.738281 144.695312 89.703125 144.609375 C 91.335938 144.691406 91.335938 144.691406 92.769531 146.128906 Z M 92.769531 146.128906 " fill-opacity="1" fill-rule="nonzero"/><path fill="#4c93e6" d="M 153.738281 181.980469 C 153.976562 182.214844 154.214844 182.453125 154.457031 182.695312 C 156.503906 182.984375 158.542969 183.234375 160.597656 183.457031 C 161.175781 183.523438 161.753906 183.589844 162.351562 183.65625 C 163.785156 183.816406 165.21875 183.972656 166.652344 184.128906 C 166.652344 184.367188 166.652344 184.605469 166.652344 184.847656 C 159.554688 185 152.832031 184.917969 145.851562 183.414062 C 148.574219 181.890625 150.613281 181.800781 153.738281 181.980469 Z M 153.738281 181.980469 " fill-opacity="1" fill-rule="nonzero"/><path fill="#f3c941" d="M 203.949219 174.808594 C 204.421875 175.046875 204.898438 175.28125 205.382812 175.527344 C 207.359375 175.722656 209.335938 175.847656 211.320312 175.972656 C 213.234375 176.238281 214.484375 176.707031 216.144531 177.675781 C 216.144531 178.386719 216.144531 179.097656 216.144531 179.828125 C 213.21875 181.226562 210.894531 181.417969 207.671875 181.351562 C 206.835938 181.339844 206.003906 181.324219 205.144531 181.3125 C 204.515625 181.296875 203.882812 181.28125 203.234375 181.261719 C 203.234375 181.027344 203.234375 180.789062 203.234375 180.546875 C 207.492188 180.191406 207.492188 180.191406 211.839844 179.828125 C 212.078125 179.117188 212.3125 178.410156 212.558594 177.675781 C 209.953125 177.441406 207.351562 177.203125 204.667969 176.960938 C 204.429688 176.25 204.195312 175.539062 203.949219 174.808594 Z M 203.949219 174.808594 " fill-opacity="1" fill-rule="nonzero"/><path fill="#fdc211" d="M 283.566406 57.214844 C 286.90625 57.574219 289.085938 59.078125 291.683594 61.066406 C 292.273438 61.5 292.273438 61.5 292.878906 61.9375 C 294.003906 62.789062 294.003906 62.789062 295.761719 64.382812 C 295.761719 65.09375 295.761719 65.804688 295.761719 66.535156 C 295.363281 66.265625 294.960938 65.996094 294.550781 65.71875 C 291.28125 63.527344 287.996094 61.410156 284.597656 59.421875 C 284.257812 59.167969 283.917969 58.910156 283.566406 58.648438 C 283.566406 58.175781 283.566406 57.703125 283.566406 57.214844 Z M 283.566406 57.214844 " fill-opacity="1" fill-rule="nonzero"/><path fill="#fdf4cb" d="M 178.84375 141.109375 C 183.746094 141.023438 188.613281 141.125 193.503906 141.421875 C 194.230469 141.464844 194.230469 141.464844 194.96875 141.507812 C 197.539062 141.675781 200.003906 141.964844 202.515625 142.542969 C 202.515625 142.777344 202.515625 143.015625 202.515625 143.257812 C 199.945312 143.300781 197.375 143.328125 194.804688 143.347656 C 194.074219 143.359375 193.347656 143.371094 192.597656 143.386719 C 191.894531 143.390625 191.191406 143.394531 190.46875 143.398438 C 189.496094 143.410156 189.496094 143.410156 188.507812 143.421875 C 186.636719 143.25 185.476562 142.773438 183.867188 141.824219 C 183.628906 142.773438 183.390625 143.71875 183.148438 144.691406 C 183.148438 143.984375 183.148438 143.273438 183.148438 142.542969 C 181.019531 142.1875 181.019531 142.1875 178.84375 141.824219 C 178.84375 141.589844 178.84375 141.351562 178.84375 141.109375 Z M 178.84375 141.109375 " fill-opacity="1" fill-rule="nonzero"/><path fill="#5592d6" d="M 312.257812 82.3125 C 312.734375 82.546875 313.207031 82.785156 313.695312 83.027344 C 313.234375 83.648438 312.777344 84.269531 312.304688 84.910156 C 310.84375 87.300781 310.371094 88.878906 310.105469 91.632812 C 309.871094 91.632812 309.632812 91.632812 309.390625 91.632812 C 309.152344 93.289062 308.917969 94.945312 308.671875 96.652344 C 307.488281 96.886719 306.304688 97.125 305.085938 97.367188 C 305.324219 96.894531 305.558594 96.421875 305.804688 95.933594 C 306.515625 95.933594 307.222656 95.933594 307.957031 95.933594 C 307.921875 95.535156 307.890625 95.136719 307.855469 94.722656 C 307.648438 90.390625 308.433594 87.382812 310.824219 83.746094 C 311.296875 83.269531 311.769531 82.796875 312.257812 82.3125 Z M 312.257812 82.3125 " fill-opacity="1" fill-rule="nonzero"/><path fill="#fec30f" d="M 209.6875 47.175781 C 208.535156 49.476562 206.277344 49.984375 203.949219 50.761719 C 201.570312 51.324219 199.183594 51.78125 196.777344 52.195312 C 200.109375 48.171875 204.558594 46.789062 209.6875 47.175781 Z M 209.6875 47.175781 " fill-opacity="1" fill-rule="nonzero"/><path fill="#2578ee" d="M 206.820312 309.613281 C 206.820312 310.085938 206.820312 310.558594 206.820312 311.046875 C 203.292969 314.042969 199.203125 315.628906 194.625 316.066406 C 192.070312 315.796875 192.070312 315.796875 190.320312 315.347656 C 190.320312 315.113281 190.320312 314.875 190.320312 314.632812 C 194.109375 314.160156 197.894531 313.683594 201.796875 313.199219 C 201.796875 312.722656 201.796875 312.25 201.796875 311.765625 C 204.941406 309.613281 204.941406 309.613281 206.820312 309.613281 Z M 206.820312 309.613281 " fill-opacity="1" fill-rule="nonzero"/><path fill="#2773e9" d="M 252.726562 138.957031 C 252.960938 139.667969 253.199219 140.375 253.441406 141.109375 C 251.410156 144.554688 248.546875 146.300781 244.835938 147.5625 C 243.078125 147.769531 241.589844 147.710938 239.8125 147.5625 C 239.8125 147.324219 239.8125 147.089844 239.8125 146.84375 C 242.417969 146.132812 245.019531 145.425781 247.703125 144.691406 C 247.941406 143.746094 248.175781 142.800781 248.421875 141.824219 C 248.863281 141.75 249.308594 141.675781 249.765625 141.601562 C 251.550781 141.199219 251.550781 141.199219 252.726562 138.957031 Z M 252.726562 138.957031 " fill-opacity="1" fill-rule="nonzero"/><path fill="#1972f9" d="M 310.105469 107.40625 C 310.816406 107.644531 311.527344 107.878906 312.257812 108.125 C 312.257812 108.597656 312.257812 109.070312 312.257812 109.558594 C 309.800781 110.78125 307.332031 111.984375 304.863281 113.1875 C 304.160156 113.535156 303.460938 113.882812 302.738281 114.242188 C 301.730469 114.730469 301.730469 114.730469 300.703125 115.230469 C 300.082031 115.535156 299.460938 115.839844 298.824219 116.152344 C 297.195312 116.730469 297.195312 116.730469 295.042969 116.011719 C 295.449219 115.828125 295.855469 115.644531 296.273438 115.453125 C 298.109375 114.613281 299.9375 113.765625 301.769531 112.917969 C 302.40625 112.628906 303.046875 112.339844 303.703125 112.042969 C 304.3125 111.757812 304.921875 111.472656 305.550781 111.179688 C 306.113281 110.921875 306.679688 110.660156 307.257812 110.394531 C 308.890625 109.566406 308.890625 109.566406 310.105469 107.40625 Z M 310.105469 107.40625 " fill-opacity="1" fill-rule="nonzero"/><path fill="#fec207" d="M 282.851562 80.875 C 285.628906 82.007812 287.332031 83.800781 289.394531 85.941406 C 291.632812 88.378906 291.632812 88.378906 294.328125 90.199219 C 294.847656 91.617188 295.328125 93.050781 295.761719 94.5 C 292.378906 92.039062 289.839844 89.066406 287.15625 85.894531 C 286.332031 84.941406 285.511719 83.984375 284.6875 83.027344 C 284.082031 82.316406 283.476562 81.609375 282.851562 80.875 Z M 282.851562 80.875 " fill-opacity="1" fill-rule="nonzero"/><path fill="#257bf1" d="M 360.316406 91.632812 C 361.265625 91.867188 362.210938 92.105469 363.1875 92.347656 C 363.769531 93.917969 363.769531 93.917969 363.902344 95.933594 C 361.695312 98.746094 359.289062 100.289062 356.011719 101.671875 C 355.539062 101.671875 355.066406 101.671875 354.578125 101.671875 C 354.578125 101.199219 354.578125 100.722656 354.578125 100.238281 C 354.976562 100.070312 355.375 99.90625 355.785156 99.734375 C 359.191406 98.269531 359.191406 98.269531 361.394531 95.398438 C 361.511719 94.863281 361.628906 94.332031 361.75 93.785156 C 361.277344 93.546875 360.804688 93.308594 360.316406 93.066406 C 360.316406 92.59375 360.316406 92.121094 360.316406 91.632812 Z M 360.316406 91.632812 " fill-opacity="1" fill-rule="nonzero"/><path fill="#fec309" d="M 165.214844 171.941406 C 166.488281 171.902344 167.757812 171.875 169.027344 171.851562 C 169.734375 171.835938 170.441406 171.816406 171.171875 171.800781 C 173.105469 171.941406 173.105469 171.941406 175.257812 173.375 C 174.074219 173.613281 172.890625 173.847656 171.671875 174.09375 C 171.671875 174.328125 171.671875 174.566406 171.671875 174.808594 C 169.777344 174.808594 167.886719 174.808594 165.933594 174.808594 C 165.695312 173.863281 165.460938 172.914062 165.214844 171.941406 Z M 165.214844 171.941406 " fill-opacity="1" fill-rule="nonzero"/><path fill="#fec312" d="M 256.3125 44.308594 C 256.546875 44.78125 256.785156 45.253906 257.027344 45.742188 C 258.839844 46.210938 258.839844 46.210938 260.613281 46.457031 C 260.378906 46.933594 260.140625 47.40625 259.898438 47.894531 C 256.515625 47.550781 253.683594 47.199219 250.574219 45.742188 C 250.574219 45.503906 250.574219 45.269531 250.574219 45.023438 C 252.464844 44.789062 254.359375 44.550781 256.3125 44.308594 Z M 256.3125 44.308594 " fill-opacity="1" fill-rule="nonzero"/><path fill="#fec20d" d="M 209.6875 151.148438 C 211.078125 151.414062 211.078125 151.414062 212.558594 151.863281 C 213.546875 153.847656 213.34375 155.480469 213.320312 157.691406 C 213.3125 158.476562 213.304688 159.261719 213.300781 160.070312 C 213.292969 160.675781 213.28125 161.28125 213.273438 161.902344 C 211.265625 159.894531 211.542969 158.1875 211.367188 155.445312 C 211.246094 154.738281 211.246094 154.738281 211.121094 154.015625 C 210.648438 153.777344 210.175781 153.542969 209.6875 153.296875 C 209.6875 152.585938 209.6875 151.878906 209.6875 151.148438 Z M 209.6875 151.148438 " fill-opacity="1" fill-rule="nonzero"/><path fill="#f5dc1b" d="M 267.070312 113.144531 C 269.199219 113.144531 271.332031 113.144531 273.527344 113.144531 C 270.851562 115.46875 267.570312 117.097656 264.203125 118.164062 C 263.492188 117.925781 262.78125 117.6875 262.050781 117.445312 C 262.746094 117.136719 263.441406 116.824219 264.15625 116.503906 C 266.550781 115.507812 266.550781 115.507812 267.070312 113.144531 Z M 267.070312 113.144531 " fill-opacity="1" fill-rule="nonzero"/><path fill="#e7ca47" d="M 301.5 88.046875 C 301.738281 88.046875 301.972656 88.046875 302.21875 88.046875 C 302.21875 90.648438 302.21875 93.253906 302.21875 95.933594 C 302.691406 96.171875 303.164062 96.40625 303.652344 96.652344 C 304.367188 97.367188 305.085938 98.085938 305.804688 98.800781 C 304.101562 99.5625 304.101562 99.5625 302.21875 100.238281 C 301.742188 100 301.269531 99.761719 300.78125 99.519531 C 301.019531 95.734375 301.257812 91.949219 301.5 88.046875 Z M 301.5 88.046875 " fill-opacity="1" fill-rule="nonzero"/><path fill="#fbd817" d="M 252.007812 118.878906 C 253.710938 118.746094 253.710938 118.746094 255.59375 118.878906 C 256.066406 119.589844 256.539062 120.300781 257.027344 121.03125 C 253.246094 123.339844 253.246094 123.339844 252.007812 123.898438 C 251.535156 123.664062 251.0625 123.425781 250.574219 123.183594 C 251.046875 121.761719 251.519531 120.34375 252.007812 118.878906 Z M 252.007812 118.878906 " fill-opacity="1" fill-rule="nonzero"/><path fill="#fec30d" d="M 195.34375 52.195312 C 194.625 54.347656 194.625 54.347656 193.035156 55.367188 C 192.070312 55.835938 192.070312 55.835938 191.082031 56.316406 C 190.441406 56.640625 189.796875 56.960938 189.136719 57.292969 C 188.582031 57.503906 188.023438 57.714844 187.453125 57.929688 C 186.980469 57.695312 186.503906 57.457031 186.019531 57.214844 C 188.347656 54.472656 191.714844 52.195312 195.34375 52.195312 Z M 195.34375 52.195312 " fill-opacity="1" fill-rule="nonzero"/><path fill="#c5c36c" d="M 313.875 109.46875 C 314.289062 109.734375 314.703125 110 315.128906 110.273438 C 313.902344 111.785156 313.320312 112.382812 311.355469 112.636719 C 310.78125 112.613281 310.207031 112.585938 309.613281 112.5625 C 309.035156 112.542969 308.453125 112.523438 307.855469 112.503906 C 307.417969 112.476562 306.976562 112.453125 306.519531 112.425781 C 311.472656 108.535156 311.472656 108.535156 313.875 109.46875 Z M 313.875 109.46875 " fill-opacity="1" fill-rule="nonzero"/><path fill="#fec30f" d="M 263.484375 48.609375 C 267.238281 48.382812 269.589844 48.769531 272.808594 50.761719 C 273.046875 51.234375 273.28125 51.707031 273.527344 52.195312 C 269.902344 51.742188 266.859375 50.664062 263.484375 49.328125 C 263.484375 49.089844 263.484375 48.851562 263.484375 48.609375 Z M 263.484375 48.609375 " fill-opacity="1" fill-rule="nonzero"/><path fill="#4d94ec" d="M 237.660156 214.246094 C 238.136719 214.246094 238.609375 214.246094 239.097656 214.246094 C 238.894531 215.5 238.683594 216.757812 238.46875 218.011719 C 238.351562 218.710938 238.234375 219.40625 238.117188 220.128906 C 237.699219 221.96875 237.152344 223.367188 236.226562 225 C 235.453125 222.152344 235.613281 220.394531 236.542969 217.605469 C 236.746094 216.972656 236.953125 216.339844 237.164062 215.6875 C 237.328125 215.210938 237.492188 214.738281 237.660156 214.246094 Z M 237.660156 214.246094 " fill-opacity="1" fill-rule="nonzero"/><path fill="#f8c420" d="M 85.597656 162.621094 C 88.792969 163.328125 88.792969 163.328125 92.054688 164.054688 C 91.816406 164.761719 91.582031 165.472656 91.335938 166.203125 C 86.496094 165.578125 86.496094 165.578125 84.882812 164.769531 C 85.117188 164.058594 85.355469 163.351562 85.597656 162.621094 Z M 85.597656 162.621094 " fill-opacity="1" fill-rule="nonzero"/><path fill="#fecc24" d="M 137.242188 146.128906 C 140.082031 146.128906 142.921875 146.128906 145.851562 146.128906 C 145.851562 147.074219 145.851562 148.019531 145.851562 148.996094 C 144.414062 150.25 144.414062 150.25 142.980469 151.148438 C 143.21875 149.964844 143.453125 148.78125 143.699219 147.5625 C 141.566406 147.324219 139.4375 147.089844 137.242188 146.84375 C 137.242188 146.609375 137.242188 146.371094 137.242188 146.128906 Z M 137.242188 146.128906 " fill-opacity="1" fill-rule="nonzero"/><path fill="#f2d422" d="M 274.960938 126.050781 C 275.433594 126.523438 275.90625 126.996094 276.394531 127.484375 C 275.921875 128.429688 275.449219 129.378906 274.960938 130.351562 C 274.015625 130.351562 273.066406 130.351562 272.089844 130.351562 C 272.089844 129.878906 272.089844 129.40625 272.089844 128.917969 C 271.382812 128.683594 270.671875 128.445312 269.941406 128.203125 C 271.597656 127.492188 273.253906 126.78125 274.960938 126.050781 Z M 274.960938 126.050781 " fill-opacity="1" fill-rule="nonzero"/><path fill="#e4c248" d="M 325.171875 117.445312 C 326.589844 117.445312 328.011719 117.445312 329.472656 117.445312 C 329.710938 117.917969 329.949219 118.390625 330.191406 118.878906 C 328.550781 119.160156 326.90625 119.425781 325.261719 119.6875 C 323.886719 119.910156 323.886719 119.910156 322.484375 120.140625 C 321.328125 120.226562 321.328125 120.226562 320.148438 120.3125 C 319.675781 119.839844 319.203125 119.367188 318.714844 118.878906 C 321.136719 118.273438 322.785156 118.085938 325.171875 118.878906 C 325.171875 118.40625 325.171875 117.933594 325.171875 117.445312 Z M 325.171875 117.445312 " fill-opacity="1" fill-rule="nonzero"/><path fill="#2f7fec" d="M 25.347656 135.371094 C 25.820312 135.609375 26.292969 135.84375 26.78125 136.089844 C 26.269531 136.796875 26.269531 136.796875 25.75 137.523438 C 24.332031 140.242188 24.171875 142.367188 23.910156 145.410156 C 22.703125 143.5625 22.472656 142.632812 22.613281 140.390625 C 23.199219 138.230469 23.875 137.035156 25.347656 135.371094 Z M 25.347656 135.371094 " fill-opacity="1" fill-rule="nonzero"/><path fill="#f2c635" d="M 244.835938 215.679688 C 245.308594 215.679688 245.78125 215.679688 246.269531 215.679688 C 247.25 218.921875 246.683594 221.132812 245.550781 224.285156 C 245.078125 224.757812 244.605469 225.230469 244.117188 225.71875 C 244.355469 222.40625 244.589844 219.09375 244.835938 215.679688 Z M 244.835938 215.679688 " fill-opacity="1" fill-rule="nonzero"/><path fill="#fcc30c" d="M 82.011719 153.296875 C 82.484375 153.296875 82.957031 153.296875 83.445312 153.296875 C 83.683594 155.664062 83.917969 158.03125 84.164062 160.46875 C 83.453125 160.46875 82.742188 160.46875 82.011719 160.46875 C 82.011719 158.101562 82.011719 155.734375 82.011719 153.296875 Z M 82.011719 153.296875 " fill-opacity="1" fill-rule="nonzero"/><path fill="#fecf28" d="M 134.820312 141.421875 C 135.542969 141.496094 136.261719 141.566406 137 141.644531 C 137.554688 141.703125 138.105469 141.761719 138.675781 141.824219 C 138.675781 142.0625 138.675781 142.296875 138.675781 142.542969 C 132.640625 142.898438 132.640625 142.898438 126.484375 143.257812 C 129.941406 141.53125 131.035156 141.027344 134.820312 141.421875 Z M 134.820312 141.421875 " fill-opacity="1" fill-rule="nonzero"/><path fill="#fed534" d="M 147.285156 123.898438 C 147.519531 123.898438 147.757812 123.898438 148 123.898438 C 148.046875 124.652344 148.089844 125.402344 148.132812 126.175781 C 148.195312 127.164062 148.253906 128.152344 148.316406 129.140625 C 148.34375 129.636719 148.371094 130.132812 148.402344 130.640625 C 148.539062 132.839844 148.734375 134.703125 149.4375 136.804688 C 148.726562 136.804688 148.015625 136.804688 147.285156 136.804688 C 147.285156 132.546875 147.285156 128.289062 147.285156 123.898438 Z M 147.285156 123.898438 " fill-opacity="1" fill-rule="nonzero"/><path fill="#2578f2" d="M 82.011719 270.175781 C 83.445312 272.328125 83.445312 272.328125 83.445312 273.761719 C 85.121094 274.625 86.671875 275.3125 88.46875 275.910156 C 88.46875 276.386719 88.46875 276.859375 88.46875 277.347656 C 86.148438 276.726562 84.535156 276.28125 82.820312 274.566406 C 82.011719 273.042969 82.011719 273.042969 82.011719 270.175781 Z M 82.011719 270.175781 " fill-opacity="1" fill-rule="nonzero"/><path fill="#267df2" d="M 224.75 264.4375 C 227.164062 264.273438 228.632812 264.195312 230.757812 265.425781 C 231.144531 265.808594 231.527344 266.195312 231.921875 266.589844 C 231.921875 267.0625 231.921875 267.535156 231.921875 268.023438 C 230.976562 268.023438 230.03125 268.023438 229.054688 268.023438 C 229.054688 267.3125 229.054688 266.605469 229.054688 265.875 C 226.925781 265.519531 226.925781 265.519531 224.75 265.15625 C 224.75 264.917969 224.75 264.683594 224.75 264.4375 Z M 224.75 264.4375 " fill-opacity="1" fill-rule="nonzero"/><path fill="#3385eb" d="M 338.796875 108.839844 C 336.386719 110.964844 334 111.652344 330.910156 112.425781 C 330.910156 111.953125 330.910156 111.480469 330.910156 110.992188 C 333.675781 109.449219 335.609375 108.558594 338.796875 108.839844 Z M 338.796875 108.839844 " fill-opacity="1" fill-rule="nonzero"/><path fill="#e8c438" d="M 307.957031 77.292969 C 309.730469 78 309.730469 78 311.542969 78.726562 C 311.304688 79.433594 311.070312 80.144531 310.824219 80.875 C 309.640625 80.875 308.457031 80.875 307.238281 80.875 C 307.476562 79.695312 307.710938 78.511719 307.957031 77.292969 Z M 307.957031 77.292969 " fill-opacity="1" fill-rule="nonzero"/><path fill="#fec208" d="M 204.398438 171.851562 C 205.597656 171.894531 205.597656 171.894531 206.820312 171.941406 C 207.054688 172.414062 207.292969 172.886719 207.535156 173.375 C 205.40625 173.019531 205.40625 173.019531 203.234375 172.65625 C 203.234375 173.132812 203.234375 173.605469 203.234375 174.09375 C 202.285156 173.855469 201.339844 173.617188 200.363281 173.375 C 201.796875 171.941406 201.796875 171.941406 204.398438 171.851562 Z M 204.398438 171.851562 " fill-opacity="1" fill-rule="nonzero"/><path fill="#3683e7" d="M 61.929688 141.824219 C 62.636719 141.824219 63.347656 141.824219 64.078125 141.824219 C 64.554688 143.71875 65.027344 145.609375 65.515625 147.5625 C 65.042969 147.5625 64.566406 147.5625 64.078125 147.5625 C 61.929688 143.4375 61.929688 143.4375 61.929688 141.824219 Z M 61.929688 141.824219 " fill-opacity="1" fill-rule="nonzero"/><path fill="#fec20c" d="M 184 58.917969 C 184.429688 59.066406 184.859375 59.214844 185.300781 59.367188 C 181.894531 62.234375 181.894531 62.234375 180.28125 62.234375 C 180.28125 61.523438 180.28125 60.8125 180.28125 60.082031 C 182.429688 58.648438 182.429688 58.648438 184 58.917969 Z M 184 58.917969 " fill-opacity="1" fill-rule="nonzero"/><path fill="#4594f4" d="M 150.152344 263.003906 C 151.808594 263.003906 153.46875 263.003906 155.175781 263.003906 C 155.175781 263.242188 155.175781 263.476562 155.175781 263.722656 C 153.519531 263.722656 151.859375 263.722656 150.152344 263.722656 C 150.152344 263.484375 150.152344 263.25 150.152344 263.003906 Z M 150.152344 263.003906 " fill-opacity="1" fill-rule="nonzero"/><path fill="#a7b7af" d="M 181.714844 183.414062 C 182.425781 183.414062 183.132812 183.414062 183.867188 183.414062 C 183.628906 184.125 183.390625 184.832031 183.148438 185.566406 C 182.675781 185.328125 182.203125 185.089844 181.714844 184.847656 C 181.714844 184.375 181.714844 183.902344 181.714844 183.414062 Z M 181.714844 183.414062 " fill-opacity="1" fill-rule="nonzero"/><path fill="#e3c959" d="M 155.175781 174.808594 C 156.359375 174.808594 157.542969 174.808594 158.761719 174.808594 C 158.523438 175.28125 158.289062 175.753906 158.042969 176.242188 C 157.097656 175.769531 156.148438 175.296875 155.175781 174.808594 Z M 155.175781 174.808594 " fill-opacity="1" fill-rule="nonzero"/><path fill="#ffd533" d="M 124.332031 143.976562 C 124.804688 144.210938 125.277344 144.449219 125.765625 144.691406 C 125.765625 145.167969 125.765625 145.640625 125.765625 146.128906 C 125.054688 145.890625 124.347656 145.652344 123.613281 145.410156 C 123.851562 144.9375 124.085938 144.464844 124.332031 143.976562 Z M 124.332031 143.976562 " fill-opacity="1" fill-rule="nonzero"/><path fill="#ffd538" d="M 109.984375 143.976562 C 109.984375 144.6875 109.984375 145.394531 109.984375 146.128906 C 109.277344 145.890625 108.566406 145.652344 107.832031 145.410156 C 108.542969 144.9375 109.253906 144.464844 109.984375 143.976562 Z M 109.984375 143.976562 " fill-opacity="1" fill-rule="nonzero"/><path fill="#4c98f1" d="M 208.96875 263.003906 C 210.152344 263.003906 211.335938 263.003906 212.558594 263.003906 C 212.558594 263.242188 212.558594 263.476562 212.558594 263.722656 C 211.375 263.722656 210.191406 263.722656 208.96875 263.722656 C 208.96875 263.484375 208.96875 263.25 208.96875 263.003906 Z M 208.96875 263.003906 " fill-opacity="1" fill-rule="nonzero"/><path fill="#93b1c1" d="M 203.949219 187.714844 C 205.132812 187.714844 206.316406 187.714844 207.535156 187.714844 C 207.535156 187.953125 207.535156 188.1875 207.535156 188.433594 C 206.351562 188.433594 205.167969 188.433594 203.949219 188.433594 C 203.949219 188.195312 203.949219 187.960938 203.949219 187.714844 Z M 203.949219 187.714844 " fill-opacity="1" fill-rule="nonzero"/><path fill="#ffec95" d="M 188.886719 143.257812 C 189.125 143.730469 189.359375 144.207031 189.605469 144.691406 C 190.078125 144.929688 190.550781 145.167969 191.039062 145.410156 C 190.328125 145.410156 189.617188 145.410156 188.886719 145.410156 C 188.886719 144.699219 188.886719 143.992188 188.886719 143.257812 Z M 188.886719 143.257812 " fill-opacity="1" fill-rule="nonzero"/><path fill="#ffd735" d="M 120.746094 143.976562 C 120.980469 144.6875 121.21875 145.394531 121.460938 146.128906 C 120.988281 146.128906 120.515625 146.128906 120.027344 146.128906 C 120.265625 145.417969 120.5 144.707031 120.746094 143.976562 Z M 120.746094 143.976562 " fill-opacity="1" fill-rule="nonzero"/><path fill="#4b97f3" d="M 197.496094 263.003906 C 200.363281 263.722656 200.363281 263.722656 200.363281 263.722656 Z M 197.496094 263.003906 " fill-opacity="1" fill-rule="nonzero"/><path fill="#4694f3" d="M 158.042969 263.003906 C 160.914062 263.722656 160.914062 263.722656 160.914062 263.722656 Z M 158.042969 263.003906 " fill-opacity="1" fill-rule="nonzero"/><path fill="#4695f3" d="M 128.636719 263.003906 C 131.503906 263.722656 131.503906 263.722656 131.503906 263.722656 Z M 128.636719 263.003906 " fill-opacity="1" fill-rule="nonzero"/><path fill="#4494f5" d="M 115.722656 263.003906 C 118.59375 263.722656 118.59375 263.722656 118.59375 263.722656 Z M 115.722656 263.003906 " fill-opacity="1" fill-rule="nonzero"/><path fill="#4594f4" d="M 111.421875 263.003906 C 114.289062 263.722656 114.289062 263.722656 114.289062 263.722656 Z M 111.421875 263.003906 " fill-opacity="1" fill-rule="nonzero"/><path fill="#9cb2b2" d="M 154.457031 181.980469 C 157.328125 182.695312 157.328125 182.695312 157.328125 182.695312 Z M 154.457031 181.980469 " fill-opacity="1" fill-rule="nonzero"/><path fill="#f9da5c" d="M 231.207031 174.808594 C 231.917969 174.808594 232.625 174.808594 233.359375 174.808594 C 233.121094 175.28125 232.886719 175.753906 232.640625 176.242188 C 232.167969 175.769531 231.695312 175.296875 231.207031 174.808594 Z M 231.207031 174.808594 " fill-opacity="1" fill-rule="nonzero"/><path fill="#418fef" d="M 53.320312 161.902344 C 54.039062 164.769531 54.039062 164.769531 54.039062 164.769531 Z M 53.320312 161.902344 " fill-opacity="1" fill-rule="nonzero"/><path fill="#ffd435" d="M 130.785156 144.691406 C 131.023438 145.167969 131.261719 145.640625 131.503906 146.128906 C 130.792969 145.890625 130.085938 145.652344 129.351562 145.410156 C 129.824219 145.171875 130.300781 144.9375 130.785156 144.691406 Z M 130.785156 144.691406 " fill-opacity="1" fill-rule="nonzero"/><path fill="#6094cc" d="M 46.148438 136.089844 C 49.015625 136.804688 49.015625 136.804688 49.015625 136.804688 Z M 46.148438 136.089844 " fill-opacity="1" fill-rule="nonzero"/><path fill="#fed030" d="M 148.71875 116.730469 C 149.191406 117.203125 149.664062 117.675781 150.152344 118.164062 C 149.445312 118.519531 149.445312 118.519531 148.71875 118.878906 C 148.71875 118.167969 148.71875 117.460938 148.71875 116.730469 Z M 148.71875 116.730469 " fill-opacity="1" fill-rule="nonzero"/><path fill="#7e9db6" d="M 325.886719 74.421875 C 326.597656 74.660156 327.308594 74.894531 328.039062 75.140625 C 327.328125 75.375 326.621094 75.613281 325.886719 75.855469 C 325.886719 75.382812 325.886719 74.910156 325.886719 74.421875 Z M 325.886719 74.421875 " fill-opacity="1" fill-rule="nonzero"/><path fill="#5891d9" d="M 353.144531 70.839844 C 353.855469 71.902344 353.855469 71.902344 354.578125 72.988281 C 354.105469 72.988281 353.632812 72.988281 353.144531 72.988281 C 353.144531 72.277344 353.144531 71.570312 353.144531 70.839844 Z M 353.144531 70.839844 " fill-opacity="1" fill-rule="nonzero"/><path fill="#3f8cef" d="M 211.121094 286.667969 C 211.359375 287.140625 211.597656 287.613281 211.839844 288.101562 C 211.367188 287.863281 210.894531 287.628906 210.40625 287.382812 C 210.640625 287.148438 210.878906 286.910156 211.121094 286.667969 Z M 211.121094 286.667969 " fill-opacity="1" fill-rule="nonzero"/><path fill="#4c97ee" d="M 215.425781 263.003906 C 217.578125 263.722656 217.578125 263.722656 217.578125 263.722656 Z M 215.425781 263.003906 " fill-opacity="1" fill-rule="nonzero"/><path fill="#4895f1" d="M 203.949219 263.003906 C 206.101562 263.722656 206.101562 263.722656 206.101562 263.722656 Z M 203.949219 263.003906 " fill-opacity="1" fill-rule="nonzero"/><path fill="#a1b4b6" d="M 179.5625 184.847656 C 181.714844 185.566406 181.714844 185.566406 181.714844 185.566406 Z M 179.5625 184.847656 " fill-opacity="1" fill-rule="nonzero"/><path fill="#acb8a7" d="M 177.410156 182.695312 C 179.5625 183.414062 179.5625 183.414062 179.5625 183.414062 Z M 177.410156 182.695312 " fill-opacity="1" fill-rule="nonzero"/><path fill="#a1b3af" d="M 164.5 182.695312 C 166.652344 183.414062 166.652344 183.414062 166.652344 183.414062 Z M 164.5 182.695312 " fill-opacity="1" fill-rule="nonzero"/><path fill="#9bb3b5" d="M 125.765625 178.394531 C 127.917969 179.109375 127.917969 179.109375 127.917969 179.109375 Z M 125.765625 178.394531 " fill-opacity="1" fill-rule="nonzero"/><path fill="#e1cc5d" d="M 104.964844 169.074219 C 107.117188 169.789062 107.117188 169.789062 107.117188 169.789062 Z M 104.964844 169.074219 " fill-opacity="1" fill-rule="nonzero"/><path fill="#dfc85f" d="M 97.792969 168.355469 C 99.945312 169.074219 99.945312 169.074219 99.945312 169.074219 Z M 97.792969 168.355469 " fill-opacity="1" fill-rule="nonzero"/><path fill="#cabe6c" d="M 79.859375 159.035156 C 80.332031 159.035156 80.808594 159.035156 81.292969 159.035156 C 81.058594 159.507812 80.820312 159.980469 80.578125 160.46875 C 80.339844 159.996094 80.105469 159.523438 79.859375 159.035156 Z M 79.859375 159.035156 " fill-opacity="1" fill-rule="nonzero"/><path fill="#ffe578" d="M 200.363281 145.410156 C 201.074219 145.765625 201.074219 145.765625 201.796875 146.128906 C 201.085938 146.480469 201.085938 146.480469 200.363281 146.84375 C 200.363281 146.371094 200.363281 145.898438 200.363281 145.410156 Z M 200.363281 145.410156 " fill-opacity="1" fill-rule="nonzero"/><path fill="#fed63c" d="M 102.097656 145.410156 C 104.246094 146.128906 104.246094 146.128906 104.246094 146.128906 Z M 102.097656 145.410156 " fill-opacity="1" fill-rule="nonzero"/><path fill="#ffd335" d="M 127.199219 143.976562 C 129.351562 144.691406 129.351562 144.691406 129.351562 144.691406 Z M 127.199219 143.976562 " fill-opacity="1" fill-rule="nonzero"/><path fill="#749bbf" d="M 56.90625 136.804688 C 57.378906 137.277344 57.855469 137.753906 58.339844 138.238281 C 57.867188 138.238281 57.394531 138.238281 56.90625 138.238281 C 56.90625 137.765625 56.90625 137.292969 56.90625 136.804688 Z M 56.90625 136.804688 " fill-opacity="1" fill-rule="nonzero"/><path fill="#528dd6" d="M 22.476562 136.089844 C 23.1875 136.445312 23.1875 136.445312 23.910156 136.804688 C 23.203125 137.160156 23.203125 137.160156 22.476562 137.523438 C 22.476562 137.050781 22.476562 136.578125 22.476562 136.089844 Z M 22.476562 136.089844 " fill-opacity="1" fill-rule="nonzero"/><path fill="#585d58" d="M 323.734375 369.128906 C 325.171875 369.84375 325.171875 369.84375 325.171875 369.84375 Z M 323.734375 369.128906 " fill-opacity="1" fill-rule="nonzero"/><path fill="#7e7753" d="M 323.734375 294.554688 C 325.171875 295.273438 325.171875 295.273438 325.171875 295.273438 Z M 323.734375 294.554688 " fill-opacity="1" fill-rule="nonzero"/><path fill="#3b8ef2" d="M 206.101562 285.234375 C 207.535156 285.949219 207.535156 285.949219 207.535156 285.949219 Z M 206.101562 285.234375 " fill-opacity="1" fill-rule="nonzero"/><path fill="#3b8ff5" d="M 209.6875 278.78125 C 211.121094 279.496094 211.121094 279.496094 211.121094 279.496094 Z M 209.6875 278.78125 " fill-opacity="1" fill-rule="nonzero"/><path fill="#3a8df6" d="M 206.101562 278.78125 C 207.535156 279.496094 207.535156 279.496094 207.535156 279.496094 Z M 206.101562 278.78125 " fill-opacity="1" fill-rule="nonzero"/><path fill="#388ef6" d="M 200.363281 278.78125 C 201.796875 279.496094 201.796875 279.496094 201.796875 279.496094 Z M 200.363281 278.78125 " fill-opacity="1" fill-rule="nonzero"/><path fill="#378ef9" d="M 183.148438 278.78125 C 184.582031 279.496094 184.582031 279.496094 184.582031 279.496094 Z M 183.148438 278.78125 " fill-opacity="1" fill-rule="nonzero"/><path fill="#378cf8" d="M 171.671875 278.78125 C 173.105469 279.496094 173.105469 279.496094 173.105469 279.496094 Z M 171.671875 278.78125 " fill-opacity="1" fill-rule="nonzero"/><path fill="#398ff8" d="M 163.066406 278.78125 C 164.5 279.496094 164.5 279.496094 164.5 279.496094 Z M 163.066406 278.78125 " fill-opacity="1" fill-rule="nonzero"/><path fill="#368ef8" d="M 154.457031 278.78125 C 155.890625 279.496094 155.890625 279.496094 155.890625 279.496094 Z M 154.457031 278.78125 " fill-opacity="1" fill-rule="nonzero"/><path fill="#388df7" d="M 151.589844 278.78125 C 153.023438 279.496094 153.023438 279.496094 153.023438 279.496094 Z M 151.589844 278.78125 " fill-opacity="1" fill-rule="nonzero"/><path fill="#358df8" d="M 148.71875 278.78125 C 150.152344 279.496094 150.152344 279.496094 150.152344 279.496094 Z M 148.71875 278.78125 " fill-opacity="1" fill-rule="nonzero"/><path fill="#378ffa" d="M 142.980469 278.78125 C 144.414062 279.496094 144.414062 279.496094 144.414062 279.496094 Z M 142.980469 278.78125 " fill-opacity="1" fill-rule="nonzero"/><path fill="#388df7" d="M 137.242188 278.78125 C 138.675781 279.496094 138.675781 279.496094 138.675781 279.496094 Z M 137.242188 278.78125 " fill-opacity="1" fill-rule="nonzero"/><path fill="#378cf8" d="M 131.503906 278.78125 C 132.9375 279.496094 132.9375 279.496094 132.9375 279.496094 Z M 131.503906 278.78125 " fill-opacity="1" fill-rule="nonzero"/><path fill="#388df8" d="M 125.765625 278.78125 C 127.199219 279.496094 127.199219 279.496094 127.199219 279.496094 Z M 125.765625 278.78125 " fill-opacity="1" fill-rule="nonzero"/><path fill="#348ef8" d="M 120.027344 278.78125 C 121.460938 279.496094 121.460938 279.496094 121.460938 279.496094 Z M 120.027344 278.78125 " fill-opacity="1" fill-rule="nonzero"/><path fill="#358ef9" d="M 114.289062 278.78125 C 115.722656 279.496094 115.722656 279.496094 115.722656 279.496094 Z M 114.289062 278.78125 " fill-opacity="1" fill-rule="nonzero"/><path fill="#398cf8" d="M 112.136719 278.78125 C 113.570312 279.496094 113.570312 279.496094 113.570312 279.496094 Z M 112.136719 278.78125 " fill-opacity="1" fill-rule="nonzero"/><path fill="#388bf5" d="M 97.074219 278.78125 C 98.507812 279.496094 98.507812 279.496094 98.507812 279.496094 Z M 97.074219 278.78125 " fill-opacity="1" fill-rule="nonzero"/><path fill="#398bf2" d="M 91.335938 278.78125 C 92.769531 279.496094 92.769531 279.496094 92.769531 279.496094 Z M 91.335938 278.78125 " fill-opacity="1" fill-rule="nonzero"/><path fill="#4a96f2" d="M 213.273438 263.003906 C 214.707031 263.722656 214.707031 263.722656 214.707031 263.722656 Z M 213.273438 263.003906 " fill-opacity="1" fill-rule="nonzero"/><path fill="#4a96f2" d="M 193.90625 263.003906 C 195.34375 263.722656 195.34375 263.722656 195.34375 263.722656 Z M 193.90625 263.003906 " fill-opacity="1" fill-rule="nonzero"/><path fill="#4696f4" d="M 191.757812 263.003906 C 193.191406 263.722656 193.191406 263.722656 193.191406 263.722656 Z M 191.757812 263.003906 " fill-opacity="1" fill-rule="nonzero"/><path fill="#4695f2" d="M 170.238281 263.003906 C 171.671875 263.722656 171.671875 263.722656 171.671875 263.722656 Z M 170.238281 263.003906 " fill-opacity="1" fill-rule="nonzero"/><path fill="#4896f3" d="M 165.214844 263.003906 C 166.652344 263.722656 166.652344 263.722656 166.652344 263.722656 Z M 165.214844 263.003906 " fill-opacity="1" fill-rule="nonzero"/><path fill="#4797f4" d="M 163.066406 263.003906 C 164.5 263.722656 164.5 263.722656 164.5 263.722656 Z M 163.066406 263.003906 " fill-opacity="1" fill-rule="nonzero"/><path fill="#4595f5" d="M 145.851562 263.003906 C 147.285156 263.722656 147.285156 263.722656 147.285156 263.722656 Z M 145.851562 263.003906 " fill-opacity="1" fill-rule="nonzero"/><path fill="#4192f3" d="M 105.683594 263.003906 C 107.117188 263.722656 107.117188 263.722656 107.117188 263.722656 Z M 105.683594 263.003906 " fill-opacity="1" fill-rule="nonzero"/><path fill="#4193f4" d="M 99.945312 263.003906 C 101.378906 263.722656 101.378906 263.722656 101.378906 263.722656 Z M 99.945312 263.003906 " fill-opacity="1" fill-rule="nonzero"/><path fill="#4295fc" d="M 138.675781 254.402344 C 140.113281 255.117188 140.113281 255.117188 140.113281 255.117188 Z M 138.675781 254.402344 " fill-opacity="1" fill-rule="nonzero"/><path fill="#3f91fa" d="M 89.183594 239.34375 C 90.621094 240.058594 90.621094 240.058594 90.621094 240.058594 Z M 89.183594 239.34375 " fill-opacity="1" fill-rule="nonzero"/><path fill="#e6c54c" d="M 252.007812 231.457031 C 253.441406 232.171875 253.441406 232.171875 253.441406 232.171875 Z M 252.007812 231.457031 " fill-opacity="1" fill-rule="nonzero"/><path fill="#bcc7c8" d="M 233.359375 189.867188 C 234.792969 190.582031 234.792969 190.582031 234.792969 190.582031 Z M 233.359375 189.867188 " fill-opacity="1" fill-rule="nonzero"/><path fill="#9db4c0" d="M 213.273438 188.433594 C 214.707031 189.148438 214.707031 189.148438 214.707031 189.148438 Z M 213.273438 188.433594 " fill-opacity="1" fill-rule="nonzero"/><path fill="#a6b5ac" d="M 170.238281 181.980469 C 171.671875 182.695312 171.671875 182.695312 171.671875 182.695312 Z M 170.238281 181.980469 " fill-opacity="1" fill-rule="nonzero"/><path fill="#decb6b" d="M 214.707031 180.546875 C 216.144531 181.261719 216.144531 181.261719 216.144531 181.261719 Z M 214.707031 180.546875 " fill-opacity="1" fill-rule="nonzero"/><path fill="#99b2b5" d="M 130.070312 179.109375 C 131.503906 179.828125 131.503906 179.828125 131.503906 179.828125 Z M 130.070312 179.109375 " fill-opacity="1" fill-rule="nonzero"/><path fill="#e6c955" d="M 159.476562 175.527344 C 160.914062 176.242188 160.914062 176.242188 160.914062 176.242188 Z M 159.476562 175.527344 " fill-opacity="1" fill-rule="nonzero"/><path fill="#f7cf42" d="M 205.382812 174.808594 C 206.820312 175.527344 206.820312 175.527344 206.820312 175.527344 Z M 205.382812 174.808594 " fill-opacity="1" fill-rule="nonzero"/><path fill="#f8d450" d="M 226.902344 173.375 C 228.335938 174.09375 228.335938 174.09375 228.335938 174.09375 Z M 226.902344 173.375 " fill-opacity="1" fill-rule="nonzero"/><path fill="#f9d34b" d="M 224.75 172.65625 C 226.183594 173.375 226.183594 173.375 226.183594 173.375 Z M 224.75 172.65625 " fill-opacity="1" fill-rule="nonzero"/><path fill="#e6cd5d" d="M 112.136719 169.789062 C 113.570312 170.507812 113.570312 170.507812 113.570312 170.507812 Z M 112.136719 169.789062 " fill-opacity="1" fill-rule="nonzero"/><path fill="#fed133" d="M 148.71875 147.5625 C 150.152344 148.277344 150.152344 148.277344 150.152344 148.277344 Z M 148.71875 147.5625 " fill-opacity="1" fill-rule="nonzero"/><path fill="#fcd436" d="M 211.839844 146.84375 C 213.273438 147.5625 213.273438 147.5625 213.273438 147.5625 Z M 211.839844 146.84375 " fill-opacity="1" fill-rule="nonzero"/><path fill="#ffd436" d="M 126.484375 145.410156 C 127.917969 146.128906 127.917969 146.128906 127.917969 146.128906 Z M 126.484375 145.410156 " fill-opacity="1" fill-rule="nonzero"/><path fill="#ffd633" d="M 122.179688 145.410156 C 123.613281 146.128906 123.613281 146.128906 123.613281 146.128906 Z M 122.179688 145.410156 " fill-opacity="1" fill-rule="nonzero"/><path fill="#ffd53c" d="M 99.945312 145.410156 C 101.378906 146.128906 101.378906 146.128906 101.378906 146.128906 Z M 99.945312 145.410156 " fill-opacity="1" fill-rule="nonzero"/><path fill="#ffec90" d="M 191.757812 144.691406 C 193.191406 145.410156 193.191406 145.410156 193.191406 145.410156 Z M 191.757812 144.691406 " fill-opacity="1" fill-rule="nonzero"/><path fill="#ffefa1" d="M 194.625 143.257812 C 196.058594 143.976562 196.058594 143.976562 196.058594 143.976562 Z M 194.625 143.257812 " fill-opacity="1" fill-rule="nonzero"/><path fill="#5890d2" d="M 33.238281 133.9375 C 34.671875 134.65625 34.671875 134.65625 34.671875 134.65625 Z M 33.238281 133.9375 " fill-opacity="1" fill-rule="nonzero"/><path fill="#acb697" d="M 326.605469 116.730469 C 328.039062 117.445312 328.039062 117.445312 328.039062 117.445312 Z M 326.605469 116.730469 " fill-opacity="1" fill-rule="nonzero"/><path fill="#b8b98d" d="M 323.734375 116.730469 C 325.171875 117.445312 325.171875 117.445312 325.171875 117.445312 Z M 323.734375 116.730469 " fill-opacity="1" fill-rule="nonzero"/><path fill="#fbcd2d" d="M 115.722656 113.859375 C 117.160156 114.578125 117.160156 114.578125 117.160156 114.578125 Z M 115.722656 113.859375 " fill-opacity="1" fill-rule="nonzero"/><path fill="#b1bd96" d="M 313.695312 112.425781 C 315.128906 113.144531 315.128906 113.144531 315.128906 113.144531 Z M 313.695312 112.425781 " fill-opacity="1" fill-rule="nonzero"/><path fill="#5c98d8" d="M 358.164062 100.953125 C 359.601562 101.671875 359.601562 101.671875 359.601562 101.671875 Z M 358.164062 100.953125 " fill-opacity="1" fill-rule="nonzero"/><path fill="#adb28d" d="M 312.257812 79.441406 C 313.695312 80.160156 313.695312 80.160156 313.695312 80.160156 Z M 312.257812 79.441406 " fill-opacity="1" fill-rule="nonzero"/><path fill="#6e97c4" d="M 337.363281 69.402344 C 338.796875 70.121094 338.796875 70.121094 338.796875 70.121094 Z M 337.363281 69.402344 " fill-opacity="1" fill-rule="nonzero"/><path fill="#f9cc32" d="M 194.625 50.042969 C 196.058594 50.761719 196.058594 50.761719 196.058594 50.761719 Z M 194.625 50.042969 " fill-opacity="1" fill-rule="nonzero"/><path fill="#fccc30" d="M 233.359375 41.4375 C 234.792969 42.15625 234.792969 42.15625 234.792969 42.15625 Z M 233.359375 41.4375 " fill-opacity="1" fill-rule="nonzero"/></svg>