<svg viewBox="0 0 140 140" style="width:70px; height:70px;" xmlns="http://www.w3.org/2000/svg">
  <!-- Inactive stroke -->
  <path
    d="M70 70 m -65 0 a 65 65 0 0 1 130 0 a 65 65 0 0 1 -130 0"
    fill="none"
    stroke="#F3C1D3"
    stroke-width="10"
    stroke-dasharray="204.2"
    stroke-dashoffset="204.2"
  />

  <!-- Active stroke -->
  <path
    d="M70 70 m -65 0 a 65 65 0 0 1 130 0 a 65 65 0 0 1 -130 0"
    fill="none"
    stroke="#E11D48"
    stroke-width="10"
    stroke-dasharray="204.2"
    stroke-dashoffset="0"
  />

  <!-- Center quadrants -->
  <g transform="translate(70,70)">
    <!-- Top -->
    <path d="M0 0 L0 -60 A60 60 0 0 1 60 0 Z" fill="#FDA4AF" />
    <!-- Right -->
    <path d="M0 0 L60 0 A60 60 0 0 1 0 60 Z" fill="#FB7185" />
    <!-- Bottom -->
    <path d="M0 0 L0 60 A60 60 0 0 1 -60 0 Z" fill="#E11D48" />
    <!-- Left -->
    <path d="M0 0 L-60 0 A60 60 0 0 1 0 -60 Z" fill="#9F1239" />
  </g>
</svg>
