<svg viewBox="0 0 121 121" fill="none" xmlns="http://www.w3.org/2000/svg">
  <g clip-path="url(#a)">
    <path d="m12.22 90.38 48.05 10.17 28.13-8.39 23.96-42.22-6-36.75L75.17.69 31.39 21.87 4.99 34.67.8 61.91l11.4 28.47z" fill="#FFC32A"></path>
    <path clip-rule="evenodd" d="M55.98 100.2c-2.63-9.74-11.13-16.69-17.78-24.27a28.27 28.27 0 0 1-6.06-11.31 28.39 28.39 0 0 1 54.81-14.81 28.27 28.27 0 0 1 .49 12.73c-1.9 9.93-5.75 20.24-3.1 30a2 2 0 0 1-1.42 2.45l-24.49 6.62a2 2 0 0 1-2.45-1.41z" fill-rule="evenodd" fill="#0F0F0F"></path>
    <path d="m83.98 97.53-24.46 6.61 2.67 9.88a5 5 0 0 0 6.14 3.52l14.8-4a5 5 0 0 0 3.52-6.13l-2.67-9.87z" fill="#0F0F0F"></path>
    <mask fill="#fff" id="b">
      <path clip-rule="evenodd" d="M51.24 97.83c-2.63-9.74-11.13-16.69-17.78-24.27a28.27 28.27 0 0 1-6.05-11.3 28.39 28.39 0 0 1 54.8-14.82 28.27 28.27 0 0 1 .5 12.73c-1.91 9.93-5.75 20.24-3.11 30a2 2 0 0 1-1.41 2.45l-24.5 6.62a2 2 0 0 1-2.45-1.4z" fill-rule="evenodd"></path>
    </mask>
    <path clip-rule="evenodd" d="M51.24 97.83c-2.63-9.74-11.13-16.69-17.78-24.27a28.27 28.27 0 0 1-6.05-11.3 28.39 28.39 0 0 1 54.8-14.82 28.27 28.27 0 0 1 .5 12.73c-1.91 9.93-5.75 20.24-3.11 30a2 2 0 0 1-1.41 2.45l-24.5 6.62a2 2 0 0 1-2.45-1.4z" fill-rule="evenodd" fill="#fff"></path>
    <path mask="url(#b)" d="m33.46 73.56 2.25-1.98-2.25 1.98zm-3.16-12.1a25.27 25.27 0 0 0 5.41 10.12l-4.5 3.96a31.27 31.27 0 0 1-6.7-12.5l5.8-1.57zM48.2 30.35A25.39 25.39 0 0 0 30.3 61.47l-5.79 1.56a31.39 31.39 0 0 1 22.11-38.49l1.57 5.8zm31.13 17.88a25.39 25.39 0 0 0-31.13-17.89l-1.57-5.79a31.4 31.4 0 0 1 38.5 22.11l-5.8 1.57zm.43 11.39a25.27 25.27 0 0 0-.43-11.39l5.8-1.57a31.27 31.27 0 0 1 .53 14.09l-5.9-1.13zM77.4 89.73a1 1 0 0 0-.7 1.22l5.79-1.56a5 5 0 0 1-3.52 6.13l-1.57-5.8zm-24.49 6.61 24.5-6.62 1.56 5.8-24.5 6.62-1.56-5.8zm1.23.7a1 1 0 0 0-1.23-.7l1.57 5.8a5 5 0 0 1-6.13-3.52l5.79-1.57zm31.5-36.3c-.48 2.55-1.1 5.13-1.68 7.62-.58 2.51-1.14 4.96-1.56 7.38-.84 4.86-1.06 9.38.09 13.65l-5.8 1.56c-1.48-5.49-1.1-11-.2-16.23.45-2.61 1.04-5.21 1.63-7.73.6-2.54 1.17-4.97 1.64-7.38l5.89 1.13zM35.72 71.58c1.62 1.84 3.35 3.65 5.14 5.54 1.78 1.87 3.6 3.8 5.3 5.83 3.41 4.05 6.51 8.62 8 14.1l-5.8 1.56c-1.15-4.26-3.62-8.03-6.78-11.8-1.58-1.87-3.3-3.7-5.07-5.56-1.76-1.85-3.58-3.76-5.3-5.71l4.51-3.96z" fill="#0F0F0F"></path>
    <path d="m78.18 97-21.55 5.83 2.28 8.43a3.5 3.5 0 0 0 4.29 2.47l14.8-4a3.5 3.5 0 0 0 2.46-4.3l-2.28-8.42z" stroke-width="3" stroke="#0F0F0F" fill="#fff"></path>
    <path d="M63.74 97c-.91-5.1-7.42-32.27-13.54-32.27-11.2 0-9.6-10.55-6.99-10.84 3.93-.44 11.98 3.88 7.43 6.07-4.37 2.1-6.61-7.03-2.19-8.24 5.83-1.6 9.93 3.04 7.87 4.77-4.12 3.47-5.51-7.17-1.13-8.38 4.38-1.2 9.86 4.48 5.93 5.78-4.58 1.51-3.74-7.39.64-7.8 4.38-.4 6.36 6.53 1.98 12.57-3.5 4.83 4.69 31.34 7.43 36.17" stroke-width="2" stroke="#0F0F0F"></path>
    <path d="M62.22 6.5c-1.72-.12-2.33.4-2.86 7.29-.14 1.72-.57 7.46.57 7.54.57.04 1.4-3.35 2.24-6.75.84-3.4 1.76-7.94.05-8.07zM88.8 3.85c-2.08-.97-3.16-.46-7.89 9.64-1.2 2.51-5.12 10.93-3.74 11.59.7.32 3.75-4.4 6.8-9.13 3.05-4.72 6.9-11.12 4.83-12.1zm17.69 28.64c-.99-2.19-1.9-2.65-9 .6-1.79.78-7.7 3.5-7.03 4.96.32.72 4.2-.16 8.08-1.06 3.87-.9 8.94-2.32 7.95-4.5zm-84.35 23.6c-2.6-4.28-1.21-8.9 1.32-12.88.87-1.36-.5-2.59-1.6-1.33-9.68 11.01 2.38 17.65.28 14.21zm-6.29.15c-1.4-2.32-1.26-4.76-.36-7.07.55-1.42-.87-2.52-1.64-1.13-3.71 6.76 3.4 10.52 2 8.2z" fill="#0F0F0F"></path>
  </g>
  <defs>
    <clipPath id="a">
      <path d="M0 0h121v121H0z" fill="#fff"></path>
    </clipPath>
  </defs>
</svg>
