<svg viewBox="0 0 121 121" fill="none" xmlns="http://www.w3.org/2000/svg">
  <g clip-path="url(#a)">
    <path d="m9 76 16.5-62.5 14 27 73-33.5 5 69-78 40L9 76z" fill="#60C081"></path>
    <path d="M62.12 90.82 51.9 68.95a2.38 2.38 0 0 1-.08-1.85 2.3 2.3 0 0 1 1.24-1.38l9.82-4.63a2.36 2.36 0 0 1 1.85-.07c.63.23 1.08.63 1.37 1.24l10.23 21.88c.27.57.3 1.21.07 1.85a2.31 2.31 0 0 1-1.23 1.37L65.33 92a2.36 2.36 0 0 1-1.84.08 2.3 2.3 0 0 1-1.37-1.25zm16.35-7.7L68.22 61.21a2.26 2.26 0 0 1-.08-1.76c.2-.62.6-1.07 1.15-1.38.52-.29 1.06-1.38 1.64-3.23a62.95 62.95 0 0 0 1.5-5.76 55.7 55.7 0 0 1 1.53-5.72c.2-.58.3-1.33.26-2.15-.03-.82-.07-1.46-.16-1.94l-.5-2.27c-.27-.97-.45-1.72-.54-2.29a9.64 9.64 0 0 1-.14-2.08c0-.84.12-1.6.35-2.24.23-.63.63-1.08 1.24-1.37 1.04-.49 2.02-.82 2.96-.96A8.55 8.55 0 0 1 79.9 28a5.43 5.43 0 0 1 2 .73 7.19 7.19 0 0 1 2.73 2.66c.43.63.7 1.12.9 1.46l.63 1.33c.4.87.7 1.78.89 2.75a15.36 15.36 0 0 1 .27 4.7l-.04.76c0 .33-.03.64 0 .88a.89.89 0 0 1 0 .08c0 .46.52.73.93.53l8.6-4.04c1.75-.83 3.6-.91 5.5-.22s3.26 1.93 4.08 3.7a8.8 8.8 0 0 1 .83 3.08c.14 1.81.64 3.6 1.41 5.25.16.32.3.64.43.96a45.63 45.63 0 0 1 2.16 8.4c.5 2.57.7 5.34 1.06 7.93a7.85 7.85 0 0 1-.19 3.12c-.66 2.42-2.46 4.37-5.45 5.82l-4.38 2.06c-1.5.71-3.2 1.3-5.16 1.78-1.92.47-3.47.8-4.6.93-1.15.15-2.71.36-4.72.56-3.25.35-5.28.69-6.08 1.02a2.58 2.58 0 0 1-1.86.05 1.94 1.94 0 0 1-1.37-1.16z" fill="#0F0F0F"></path>
    <path d="M65 57.27v-.03l.02-.03c.06-.21.19-.37.44-.51a3.8 3.8 0 0 0 1.41-1.67c.33-.65.64-1.47.94-2.43a64.49 64.49 0 0 0 1.54-5.89 54.3 54.3 0 0 1 1.47-5.53c.29-.82.39-1.77.35-2.72-.03-.8-.07-1.55-.2-2.17a53.22 53.22 0 0 0-.24-1.14l-.25-1.16-.01-.05-.02-.05c-.27-.93-.42-1.62-.5-2.11l-.01-.05-.01-.05a8.4 8.4 0 0 1 .16-3.47c.1-.27.23-.4.46-.52a9.14 9.14 0 0 1 2.54-.83 7.15 7.15 0 0 1 2.03-.06c.5.07 1 .25 1.43.51a5.67 5.67 0 0 1 2.25 2.17l.02.03.02.04c.32.46.53.83.72 1.15l.1.17.6 1.27c.34.75.6 1.54.77 2.39a14.17 14.17 0 0 1 .24 4.35v.02a5.63 5.63 0 0 1-.01.27l-.02.5-.01.16c-.01.24-.02.6 0 .87a2.08 2.08 0 0 0 1.09 1.8c.56.3 1.3.37 1.98.06l8.6-4.05a5.43 5.43 0 0 1 4.34-.17 5.46 5.46 0 0 1 3.24 2.92c.4.87.64 1.72.7 2.57.15 2 .7 3.98 1.54 5.77l1.36-.64-1.33.7c.14.26.25.53.35.79a44.07 44.07 0 0 1 2.09 8.12l1.48-.24-1.47.29c.31 1.61.5 3.25.7 4.94.1.95.21 1.91.35 2.9.12.87.06 1.7-.15 2.53-.52 1.88-1.94 3.53-4.66 4.85l-4.36 2.06a26 26 0 0 1-4.88 1.67c-1.93.47-3.4.78-4.42.9h-.01l-.37.05c-1.11.15-2.54.33-4.31.5l-.01.01c-1.64.18-3 .35-4.05.53-1 .17-1.86.36-2.44.6a1.08 1.08 0 0 1-.79.02l-.1-.04-.09-.02c-.11-.02-.22-.07-.34-.32L65.03 57.88a.76.76 0 0 1-.03-.61zM58.93 87.5 48.7 65.62a.88.88 0 0 1-.03-.7c.1-.28.23-.41.47-.53l9.82-4.62c.21-.1.44-.12.7-.03.26.1.4.23.52.47L70.4 82.09a.88.88 0 0 1 .02.7.81.81 0 0 1-.46.52l-9.82 4.63a.86.86 0 0 1-.7.03.82.82 0 0 1-.52-.47z" stroke-width="3" stroke="#0F0F0F" fill="#fff"></path>
    <path d="m47.13 53.06-.01.03-.01.03c-.05.12-.11.2-.29.28-.67.32-1.11.96-1.4 1.43-.32.55-.63 1.25-.94 2.05a55.12 55.12 0 0 0-1.64 4.93 46.23 46.23 0 0 1-1.55 4.6 6.43 6.43 0 0 0-.47 2.37c-.01.68-.02 1.34.05 1.89l.15 1 .15.98v.05l.01.05c.18.81.27 1.4.31 1.8v.05l.01.05a6.99 6.99 0 0 1-.31 2.82c-.07.17-.15.24-.3.3-.82.32-1.52.5-2.14.54-.73.06-1.27.04-1.66-.05a3.13 3.13 0 0 1-1.1-.48 7.42 7.42 0 0 1-1.03-.87 4.62 4.62 0 0 1-.7-1.02l-.02-.04-.02-.03c-.23-.4-.4-.72-.53-1a48.9 48.9 0 0 0-.08-.15l-.43-1.1a8.54 8.54 0 0 1-.5-2.02 11.84 11.84 0 0 1 .02-3.66v-.03l.02-.15a17.52 17.52 0 0 0 .06-.5l.01-.12a7.1 7.1 0 0 0 .05-.77 2 2 0 0 0-.92-1.77 2.08 2.08 0 0 0-1.88-.19l-7.53 2.96c-1.16.46-2.32.44-3.54-.1s-2.02-1.37-2.47-2.54a6 6 0 0 1-.44-2.14 14.4 14.4 0 0 0-1-5.07l-1.4.55 1.37-.61a5.62 5.62 0 0 1-.24-.66 37.4 37.4 0 0 1-1.31-6.98l-1.5.14 1.5-.2c-.19-1.37-.25-2.76-.32-4.2-.04-.81-.08-1.64-.15-2.5a5.2 5.2 0 0 1 .26-2.05c.52-1.49 1.75-2.77 4.1-3.73l3.82-1.5a21.9 21.9 0 0 1 4.2-1.14c1.66-.3 2.91-.47 3.77-.52h.02l.32-.02c.95-.06 2.16-.14 3.68-.19a59.94 59.94 0 0 0 3.5-.22c.86-.09 1.61-.2 2.14-.38a.7.7 0 0 1 .52.02l.09.04.1.03a.17.17 0 0 1 .03 0 .04.04 0 0 1 0 .02c.01 0 .05.04.09.14l7.49 19.2a.42.42 0 0 1 0 .35zm6.84-25.18 7.47 19.16a.53.53 0 0 1 0 .43c-.08.18-.16.24-.3.3l-8.61 3.39a.52.52 0 0 1-.43-.02.48.48 0 0 1-.3-.3l-7.48-19.17a.53.53 0 0 1 .02-.43c.07-.17.15-.24.3-.3l8.6-3.38a.52.52 0 0 1 .42.01c.18.08.25.15.3.3z" stroke-width="3" stroke="#0F0F0F" fill="#0F0F0F"></path>
    <path d="m43.75 51.3-.01.04-.02.03c-.04.11-.1.2-.28.28-.68.32-1.12.95-1.4 1.43a14.2 14.2 0 0 0-.94 2.05 55.12 55.12 0 0 0-1.64 4.93 46.58 46.58 0 0 1-1.55 4.6 6.43 6.43 0 0 0-.47 2.37c-.02.67-.02 1.34.05 1.89l.14 1 .15.98v.05l.02.05c.18.81.27 1.4.31 1.8v.05l.01.05a7 7 0 0 1-.31 2.81c-.08.18-.15.24-.3.3-.82.32-1.53.5-2.14.55-.74.06-1.27.03-1.66-.05a3.13 3.13 0 0 1-1.11-.48 7.5 7.5 0 0 1-1.02-.87 4.62 4.62 0 0 1-.7-1.02l-.02-.04-.02-.03a16.61 16.61 0 0 1-.6-1.15l-.44-1.1a8.54 8.54 0 0 1-.51-2.03 11.8 11.8 0 0 1 .03-3.65v-.03l.02-.15a17.52 17.52 0 0 0 .06-.5l.01-.12a7.1 7.1 0 0 0 .05-.77 2 2 0 0 0-.93-1.78 2.08 2.08 0 0 0-1.88-.18l-7.52 2.96a4.4 4.4 0 0 1-3.54-.1 4.43 4.43 0 0 1-2.48-2.54 6 6 0 0 1-.43-2.14 14.4 14.4 0 0 0-1-5.08l-1.4.55 1.37-.6a5.62 5.62 0 0 1-.24-.67 37.5 37.5 0 0 1-1.32-6.97l-1.49.14 1.49-.2c-.18-1.37-.25-2.76-.32-4.2-.04-.81-.08-1.65-.14-2.5a5.2 5.2 0 0 1 .26-2.05c.51-1.5 1.75-2.78 4.1-3.73l3.82-1.5c1.2-.48 2.58-.86 4.2-1.14 1.66-.3 2.91-.48 3.77-.52h.01l.32-.02c.95-.06 2.17-.14 3.69-.19a59.94 59.94 0 0 0 3.49-.22c.86-.09 1.62-.2 2.15-.38a.7.7 0 0 1 .52.02l.09.03.09.03a.17.17 0 0 1 .04.02c.01 0 .05.04.09.15l7.49 19.2a.42.42 0 0 1-.01.35zm6.83-25.17 7.48 19.16a.53.53 0 0 1-.01.43c-.08.17-.15.24-.3.3l-8.6 3.38a.52.52 0 0 1-.43-.01c-.17-.08-.24-.15-.3-.3l-7.48-19.17a.53.53 0 0 1 .01-.43c.08-.18.15-.24.3-.3l8.6-3.39a.52.52 0 0 1 .43.02c.17.07.24.15.3.3z" stroke-width="3" stroke="#0F0F0F" fill="#fff"></path>
    <path d="M81.14 79.03a2 2 0 0 1 2.85-2.39l31.1 17a2 2 0 0 1 .32 3.3l-4.85 4.07a2.01 2.01 0 0 0-.25 2.82l4.25 5.12a2.01 2.01 0 0 1-.26 2.82l-4.48 3.76a2 2 0 0 1-2.81-.26l-4.25-5.1a2 2 0 0 0-2.82-.26l-4.5 3.78a2 2 0 0 1-3.18-.9L81.14 79.02z" fill="#0F0F0F"></path>
    <path d="m78.93 72.92 31.1 17.01a1 1 0 0 1 .17 1.65l-4.85 4.07a3.01 3.01 0 0 0-.39 4.23l4.26 5.11a1 1 0 0 1-.13 1.42l-4.49 3.75a1 1 0 0 1-1.4-.12l-4.25-5.11a2.99 2.99 0 0 0-4.22-.38l-4.51 3.78a1 1 0 0 1-1.59-.46L77.51 74.12a1 1 0 0 1 1.42-1.2z" stroke-width="2" stroke="#0F0F0F" fill="#fff"></path>
    <path d="M74.85 7.2c-1.44.19-1.86.73-1.11 6.5.17 1.45.8 6.26 1.76 6.13.48-.06.59-3 .7-5.96.1-2.95.08-6.86-1.35-6.67zM96.35.43c-1.89-.45-2.7.17-4.87 9.32-.56 2.28-2.35 9.91-1.1 10.2.63.16 2.34-4.27 4.05-8.7C96.14 6.84 98.23.89 96.34.44zm19.52 20.62c-1.2-1.64-2.03-1.86-7.33 2.04-1.34.96-5.75 4.22-4.96 5.3.4.55 3.45-.85 6.5-2.25 3.04-1.4 6.98-3.45 5.79-5.1z" fill="#0F0F0F"></path>
  </g>
  <defs>
    <clipPath id="a">
      <path d="M0 0h121v121H0z" fill="#fff"></path>
    </clipPath>
  </defs>
</svg>
